/* XPM */
static char *a6c9210aeb7847a2ccca38df0dd14c7cvvLmvtKM9zijNxHW[] = {
/* columns rows colors chars-per-pixel */
"70 70 214 2 ",
"   c #5D2D19",
".  c #6C351E",
"X  c #6C3A26",
"o  c #773C25",
"O  c #7A432B",
"+  c #7A523B",
"@  c #2E464D",
"#  c #31484E",
"$  c #3B4B4C",
"%  c #2F4A51",
"&  c #304D53",
"*  c #295459",
"=  c #32545A",
"-  c #35595F",
";  c #3C595B",
":  c #205D61",
">  c #345C62",
",  c #3B5E62",
"<  c #0F7876",
"1  c #147272",
"2  c #187775",
"3  c #2D6D6C",
"4  c #346067",
"5  c #38656A",
"6  c #3A666B",
"7  c #3F7169",
"8  c #3D6D71",
"9  c #3A7579",
"0  c #434E4D",
"q  c #4A4E49",
"w  c #564D45",
"e  c #48514D",
"r  c #58544A",
"t  c #5A554B",
"y  c #455251",
"u  c #495452",
"i  c #455C5A",
"p  c #535953",
"a  c #635647",
"s  c #6C5A4B",
"d  c #5C6256",
"f  c #6F6250",
"g  c #7B6C55",
"h  c #486A65",
"j  c #4D6E6A",
"k  c #4B7271",
"l  c #874627",
"z  c #82442B",
"x  c #8D4C2D",
"c  c #944D2C",
"v  c #98532B",
"b  c #9D542D",
"n  c #884B31",
"m  c #974F31",
"M  c #895839",
"N  c #955232",
"B  c #9B5533",
"V  c #955834",
"C  c #9D5A33",
"Z  c #A5572A",
"A  c #A3552C",
"S  c #A5592C",
"D  c #AC5C2C",
"F  c #B15E2C",
"G  c #A35532",
"H  c #A45C34",
"J  c #AB5D34",
"K  c #A45D3A",
"L  c #AC5E39",
"P  c #B25E32",
"I  c #B5622D",
"U  c #BA652E",
"Y  c #BE692E",
"T  c #A66337",
"R  c #AC6236",
"E  c #AC6339",
"W  c #B46235",
"Q  c #BB6432",
"!  c #BB6C35",
"~  c #B3643A",
"^  c #B56A3A",
"/  c #B86838",
"(  c #BC6C3C",
")  c #BD713C",
"_  c #C46C2F",
"`  c #C86F2F",
"'  c #C9712F",
"]  c #C16733",
"[  c #C46B34",
"{  c #CB6E34",
"}  c #C36D3B",
"|  c #C86F3B",
" . c #C77335",
".. c #CD7233",
"X. c #C4733D",
"o. c #CB743D",
"O. c #CC7A3D",
"+. c #D27433",
"@. c #D57934",
"#. c #DB7D35",
"$. c #D1763C",
"%. c #D47C3E",
"&. c #D97E3E",
"*. c #805C44",
"=. c #886C4E",
"-. c #84735A",
";. c #897659",
":. c #B56A42",
">. c #BC6C42",
",. c #AA7243",
"<. c #907F61",
"1. c #C26E41",
"2. c #C86F41",
"3. c #C57441",
"4. c #CB7441",
"5. c #CD7A42",
"6. c #CB7946",
"7. c #D17741",
"8. c #D47C42",
"9. c #D97E42",
"0. c #D47E48",
"q. c #0A817E",
"w. c #1A837C",
"e. c #2F8179",
"r. c #34857C",
"t. c #5D8A7B",
"y. c #DE8136",
"u. c #D6813E",
"i. c #DC823E",
"p. c #E38539",
"a. c #938463",
"s. c #D58142",
"d. c #DB8343",
"f. c #DA8549",
"g. c #DB8748",
"h. c #D78C4A",
"j. c #E18642",
"k. c #E48A43",
"l. c #E48E49",
"z. c #EB9349",
"x. c #F09649",
"c. c #F49A4B",
"v. c #3C7D83",
"b. c #437F85",
"n. c #158882",
"m. c #168A82",
"M. c #138D86",
"N. c #2C8D81",
"B. c #3C8386",
"V. c #2E9284",
"C. c #2B9C8C",
"Z. c #379A89",
"A. c #38A691",
"S. c #2DBBA2",
"D. c #36BDA2",
"F. c #3CBDA1",
"G. c #45868A",
"H. c #55898A",
"J. c #4F9889",
"K. c #579885",
"L. c #438E94",
"P. c #449399",
"I. c #48969B",
"U. c #678F8E",
"Y. c #689D83",
"T. c #50A88E",
"R. c #57BB9A",
"E. c #6AA991",
"W. c #469DA3",
"Q. c #4E9CA0",
"!. c #579EA0",
"~. c #49A3A9",
"^. c #4AA7AD",
"/. c #4EB4A6",
"(. c #4AAEB4",
"). c #51AEB3",
"_. c #4DB0B6",
"`. c #52B3B7",
"'. c #5AB7B9",
"]. c #6FA9A8",
"[. c #65BBBB",
"{. c #5DC29E",
"}. c #68C59E",
"|. c #77C79E",
" X c #7EC99F",
".X c #57C3A1",
"XX c #5DC4A1",
"oX c #77C8A0",
"OX c #67C0BF",
"+X c #66BEC0",
"@X c #6EC4C2",
"#X c #73C7C4",
"$X c #76C9C4",
"%X c #7DC9C6",
"&X c #7FCEC7",
"*X c #83BB95",
"=X c #80B0B0",
"-X c #89C298",
";X c #82CA9F",
":X c #8CCC9E",
">X c #91CD9F",
",X c #8BCEA0",
"<X c #92CFA0",
"1X c #80CEC7",
"2X c #88CAC7",
"3X c #82CEC9",
"4X c #93CDCA",
"5X c #85D0CA",
"6X c #8CD2CD",
"7X c #91D4CF",
"8X c #95D5D1",
"9X c #9AD6D3",
"0X c #9FD8D5",
"qX c #A2DBD8",
/* pixels */
"{ +.{ { } W Z G ] } P G G 6.9.0.6.~ ( d.8.| ( o.4.} ( W L H $.d.%.$.$.$.%.9.%.o.| H O.k.d.d.8.$.o.o.o.4.o.%.d.j.&.%.7.o.>.K x m ~ 4.4.7.4.2.",
"{ ..{ { Q G m c b b G G b 6.f.9.5.3.4.j.d.7.4.o.} ( ~ L H S $.i.%.o.$.$.$.%.%.o.} J O.d.d.u.%.o.o.X.o.4.o.9.9.j.k.j.o.~ E N o o c ( 4.8.4.2.",
"{ { { { Q G m o   . c A B 6.9.0.0.0.d.j.9.9.8.$.| ( ~ ~ L J %.d.%.o...o.o.%.$.| ( H 8.j.d.d.9.o.o.} X.o.4.%.9.d.p.j.X.K B x x B J } 7.4.} o.",
"[ [ { +.{ Q Z o   l W J B 6.f.f.0.f.j.j.9.d.i.%.4.} ~ ~ L H %.i.o.| o.o.$.%.| } } C 8.k.j.j.d.4.3.} X.o.$.7.9.i.k.k.X.E o o l x K } 8.4.} 8.",
"Q [ { +.{ D l X z b J W B 6.9.f.f.9.d.l.9.d.j.8.4.} / ~ ~ J &.i.o.} | o.$.$.} ] ( B 9.k.k.k.9.X.4.o.3.o.4.8.8.%.d.d.( x X X o n K ( &.1.P X.",
"] [ { +.[ b . X A ] ] ! C 4.0.9.0.f.d.d.9.d.j.&.7.} / L ~ H %.i.o.| ..| o.o.[ } Q B d.c.x.z.%.4.4.4.3.4.o.$.%.o.&.9./ l C C n B ~ ( 8.:.l l ",
"[ [ { ..{ P c b W +.$.o.C 4.0.9.7.0.f.d.9.d.k.&.7.} / J ~ J $.9.o.| | } | o.o.! W b d.c.c.x.%.o.4.7.4.o.o.$.$.o.%.%./ x ~ } B C ~ / 4.~ z X ",
"[ [ [ Q { [ D A A Q |  .B 1.6.0.7.0.0.9.0.j.k.&.o.} / ~ / R $.%.| o.} ] | o.| Q P b d.c.c.x.9.4.4.8.8.$.$.$.$.o.i.&./ z L | H L 2.} o.~ c o ",
"Q Q j h f ] F Z v D [ } B 1.3.4.6.8.0.9.9.k.p.%.4.} / / / R o.$.| } | o.o.$.| W J b d.c.c.x.9.4.7.9.9.%.$.9.9.%.j.j.( n / 4.~ ( $.7.8.o./ ~ ",
"Q Q h 8 w Z Q Z v D [ } N 1.2.2.4.0.0.9.9.k.p.&.7.o.} } :.R o.o.| | $.$.o.o.| W J b d.x.x.z.7.4.4.8.9.7.%.9.9.d.k.j.} N } %.o.o.8.9.&.&.7.} ",
"Q Q h 8 q c P Z S Q | } m >.>.1.3.0.0.7.8.j.j.8.7.4.} | } J | o.....| | |  .! W P b d.z.x.z.4.1.2.4.7.7.%.9.9.&.k.j.X.C X.9.d.9.9.9.&.&.o.G ",
"W Q j 8 u M Q Q Q Q | ] N >.>.( 1.6.7.0.9.j.i.8.7.4.} | } R } +.+...| [ } | Q W P S d.x.c.z.4.1.1.3.7.$.7.8.7.&.k.k.} C X.d.d.8.9.%.%.%.( G ",
"P ] j 8 - t E ..| ] o.} B :.( :.>.3.4.8.j.i.i.&.7.o.} | 3.W o.........| | ] Q Q W S k.c.c.z.4.1.2.4.7.7.%.%.7.%.j.j.} B } &.9.8.o.} ~ ~ J G ",
"W [ j 8 - @ q ^ [ [ %.| N >.:.:.>.4.4.8.9.k.i.9.7.4.} o.3.W o.o.o.) ( ^ ^ ^ :.E T C s.h.l.h.:.:.:.>.3.3.3.6.3.3.5.s.^ N E 4.8.4.2.~ G c G W ",
"] { j 8 - @ # q T ] %.} N :.:.>.>.3.4.7.%.%.%.7.5.X.3.3.3.R } ( E p y y y y y y y y u u u u y y y u u y u u y u u u y y y =.%.} } L C c L ( ",
"{ ..j 8 - @ @ # w T =.t q t t t t t t a a t t t t t t t t w t t p G.P.P.P.I.].].].=X=X=X=X=X=X=X=X=X=X=X=X].].=X=X=X=X=X].U.t t a K G G L } ",
"[ +.j 8 - @ @ @ @ w 0 @ @ @ @ e.V.J.Y.Y.Z.V.V.V.V.V.Z.Y.Y.J.3 - L.(.$X3X3X6X8X8X0XqXqXqXqXqXqXqXqXqXqXqXqXqXqXqXqXqXqXqX0X2X].U.& t V J W } ",
"] [ j 8 - @ @ @ @ @ 5 G.H.H.v.9 A.XX<X;XD.S.S.S.S.S.D.;X<XXXV.5 (.(.%X9XqXqXqXqXqXqXqX9X6X6X6X6X6X6X6X6X6X6X6X6X6X6X6X6X9XqXqX4XU.= w a s *.",
"P D j 8 - @ @ @ @ 4 Q.#X6X6X+Xb.e.T.<X XD.S.S.S.S.S.D.;X>XXXV.4 (.'.&X8XqX9X8X8X8X8X8X6X&X&X&X&X&X&X&X&X&X&X&X&X&X&X&X&X6X9X0XqX8XU.; @ @ $ ",
"J S j 8 - @ @ @ - I.@X6X9X0X9X[.v.t.*X XD.S.S.S.S.S.D.;X>XXXV.4 ).3X9XqX9X7X1X&X&X&X&X&X&X&X&X&X&X&X&X&X&X&X&X&X&X&X&X&X3X7X0X0X0X0XH.& @ $ ",
"l b j 8 - @ @ & I.OX&X1X5X9X9X3X'.v.j  XF.D.D.D.D.D.F.;X>X}.V.4 ).8X0X0X7X3X&X&X&X&X&X&X&X&X&X&X&X&X&X&X&X&X&X&X&X&X&X3X7X0XqXqX9X9X[.9 @ 0 ",
"  l j 8 - @ @ = ].&X&X&X&X5X5X3X'.v.h :X;X X X X X X;X:X>X,XY.5 ).8XqX7X3X&X&X&X&X&X&X&X&X&X&X&X&X&X&X&X&X&X&X&X&X&X3X8X0XqX0X9X5X9X+Xv.@ 0 ",
"o o j 8 - @ - P.OX3X1X@X[.&X&X&X'.v.h :X>X>X>X>X>X>X>X>X:X>X-XY.k 2X9X6X&X&X&X&X&X&X&X&X&X&X&X&X&X&X&X&X&X&X&X&X&X3X8X0X0X0X0X9X3X5X'.v.@ 0 ",
"J D j 8 - @ > (.$X1X1XOX~.H.'.[.L.> h ;XXX.X.X.X.X.XXX:X>XoX.XT.- ).8X6X&X&X&X&X&X&X&X&X&X&X&X&X&X&X&X&X&X&X&X&X&X3X6X6X6X8X0X9X&XOX`.v.@ 0 ",
"[ { j 8 - @ > ^.$X&X&X#X).9 B.B.> ; t. XD.S.S.S.S.S.D.;X>XXXS.C.- ~.6X8X5X&X&X&X&X&X&X&X&X&X&X&X&X&X&X&X&X&X&X&X&X&X&X&X&X6X0X9X%XL.~.v.@ 0 ",
"+.@.j 8 - @ > ^.$X5X3X1X#X~.= @ - K.<X;XD.S.S.S.S.S.D.;X>XXXS.C.- ~.3X0X7X&X&X&X&X&X&X&X&X&X&X&X&X&X&X&X&X&X&X&X&X&X&X&X&X6X0X9X%Xk B.8 @ 0 ",
"+.#.j 8 - @ > ^.$X8X6X&X#X~.= @ N..X>X;XD.S.S.S.S.S.D.;X>XXXS.C.- ~.#X7X7X&X&X&X&X&X&X&X&X&X&X&X&X&X&X&X&X&X&X&X&X&X&X&X&X6XqX9X&X`.5 @ @ 0 ",
"+.p.j 8 - @ > ^.$X8X6X&X#X~.- @ N..X>X;XD.S.S.S.S.S.D.;X>XXXS.C.- ~.#X8X7X&X&X&X&X&X&X&X&X&X&X&X&X&X&X&X&X&X&X&X&X&X&X&X&X6X0X9X&X`.8 @ @ 0 ",
"@.p.j 8 - @ > ^.$X5X3X1X#X(.I.> N..X>X;XD.S.S.S.S.S.D.;X>XXXS.C.- ~.#X8X7X&X&X&X&X&X&X&X&X&X&X&X&X&X&X&X&X&X&X&X&X&X&X&X&X3X6X0X8X%X).9 @ 0 ",
"y.p.j 8 - @ > (.$X1X6X%X'.@X%X].k K.<X XD.S.S.S.S.S.D.;X>XXXS.C.- ~.3X9X7X&X&X&X&X&X&X&X&X&X&X&X&X&X&X&X&X&X&X&X&X&X&X&X&X&X3X6X0X5X'.v.@ 0 ",
"p.p.j 8 - @ = v.'.$X6X3X%X7X0X8X].t.Y.;X}.XXXXXXXXXX}.:X>XoXT.e.G.[.8XqX7X&X&X&X&X&X&X&X&X&X&X&X&X&X&X&X&X&X&X&X&X&X&X&X&X&X&X5X0X7X#XG.@ $ ",
"p.p.j 8 - @ @ & W.@X1X5X8X0X0X8X6XU.h :X>X>X>X>X>X>X>X>X:X<XY.4 (.%X9X9X6X&X&X&X&X&X&X&X&X&X&X&X&X&X&X&X&X&X&X&X&X&X&X&X&X&X&X5X0XqX6XH.@ 0 ",
"y.y.j 8 - @ @ & W.[.%X&X3X8X8X3X%XH.h :XoXoXoXoXoXoX|.:X:X;XK.4 ).%X9X6X&X&X&X&X&X&X&X&X&X&X&X&X&X&X&X&X&X&X&X&X&X&X&X&X&X&X&X5X9X0X7X]., y ",
"p.y.j 8 - @ @ & P.(.OX&X1X1X1X%X'.v.h  XD.D.D.D.D.D.D.;X<XXXV.4 ).%X9X6X&X&X&X&X&X&X&X&X&X&X&X&X&X&X&X&X&X&X&X&X&X&X&X&X&X&X&X5X9X0X0X6X].y ",
"p.y.j 8 - @ @ @ = L.(.[.&X&X&X'.(.v.h  XD.S.S.S.S.S.D.;X<XXXV.4 ).%X8X6X&X&X&X&X&X&X&X&X&X&X&X&X&X&X&X&X&X&X&X&X&X&X&X&X&X&X&X5X9X0XqX8X!.y ",
"p.y.j 8 - @ @ @ @ - 4 G.'.'.'._.v.= h  XD.S.S.S.S.S.D.;X>XXXV.4 ).%X5X3X&X&X&X&X&X&X&X&X&X&X&X&X&X&X&X&X&X&X&X&X&X&X&X&X&X&X5X9X9X6X9X%XI.y ",
"p.y.j 8 - @ @ @ @ @ @ - 9 9 9 9 = h E. XD.S.S.S.S.S.D.;X>XXXA.r.9 '.%X&X&X&X&X&X&X&X&X&X&X&X&X&X&X&X&X&X&X&X&X&X&X&X&X&X6X7X8X0X9X5X5X@XL.y ",
"#.y.j 8 - @ @ @ @ @ @ @ @ @ @ @ 3 T.<X;XD.S.S.S.S.S.D.;X>XXXS.C.= ~.$X1X&X3X6X7X7X7X7X6X6X&X&X&X&X&X&X&X&X&X&X&X&X3X6X7X9XqXqX0X9X@X$XOXL.0 ",
"#.y.h 4 = @ @ @ @ 4 7 7 7 7 7 7 A.}.>X;X.XF.F.F./.F./.;X<X}.F.A.7 G.[.%X1X5X8X8X9XqXqXqX9X6X6X6X6X6X6X6X6X6X6X6X6X6X9XqXqX9X9XqX8XQ.'.'.L.y ",
"@.@.a $ @ @ @ @ @ J.{.{.{.{.{.{.{.|.>X:X}.{.{.{.}.{.}.:X<X|.{.{.R.- P.[.$X#X$X&X8X9X9X9X9X9X9X9X9X9X9X9X9X9X9X9X0X0X0X0X9X6X%X7X4Xk G.^.L.0 ",
"@...! a @ @ @ @ @ J.{.R.R.R.R.R.R.}.:X;XR.R.R.R.R.R.R.;X>X|.R.R.T.- P._._._.`.$X&X&X&X&X&X&X&X&X&X%X&X&X&X&X%X3X8X8X8X9X6XOX_.'.%X4Xk v.L.0 ",
"@.[ ! s @ @ @ @ @ J.F.C.n.n.n.n.n.T.|.R.n.n.n.n.n.n.V.R.|.T.n.n.w.* P.(.(.(.(.`.`.`.`.`.`.`.`.`.`.`.`.`.`.`.`.`.'.'.'.$X[._.(.(.'.%Xk 9 L.0 ",
".._ _ ) f @ @ @ @ N.C.n.q.q.q.q.< Z.}.R.n.q.q.q.q.q.n.R.|.Z.< q.< 1 3 P.L.9 (.(.(.(.(.(.(.(.(.(.(.(.(.(.(.(.(.(.(._.[.G.P.(.(.(.(.`.5 = > 0 ",
"_ _ ` @.=.@ @ @ @ 2 M.q.q.q.q.q.q.Z.}.R.n.q.q.q.q.q.n.R.|.Z.q.q.q.q.* G.B.> (.(.(.(.(.(.(.(.(.(.(.(.(.(.(.(.(.(.(.^.H.b.W.(.(.(.(.(.!.k @ 0 ",
"_ _ { +.,.t @ @ @ : < q.q.q.n.q.q.Z.}.R.n.q.q.q.q.q.n.R.|.A.q.q.q.q.* G.I.9 B.(.(.(.(.(.(.(.(.(.(.(.(.(.(.(.(.'.).v.& I._.(.(.(.(.(.+XH.@ 0 ",
"U ] ` ..y.,.# @ @ @ : 1 1 1 1 1 1 r.Y.J.2 1 1 1 1 1 2 J.E.r.1 1 1 1 * 9 P.B.- ~._.(.(.(.(.(.(.(.(.(.(.(.(.(.W.!.H.& 5 W._.(.(.(.(.(.W.8 @ 0 ",
"W U ' +.#.T & @ @ @ @ @ @ @ @ @ @ % & & @ @ @ @ @ @ @ & & % @ @ @ @ @ % % % = P.W.W.W.W.W.W.W.W.W.W.W.W.W.W.8 % & = P.W.W.W.W.W.W.W.5 @ % y ",
"F F ` +.#.,.5 & % % % % % % % % % % % % % % % % % % % % % % % % % % % % % % % = = = = = = = = = = = = = = = & % % % = = = = = = = = & & = h ",
"F D _ +.#.,.8 5 5 5 5 5 5 5 5 5 5 5 5 5 5 5 5 5 5 5 5 5 5 5 5 5 5 5 5 5 5 5 5 5 5 5 5 5 5 5 5 5 5 5 5 5 5 5 5 5 5 5 5 5 5 5 5 5 5 5 5 5 5 h ",
"U F U @.#.) =.k 8 8 8 8 8 8 8 8 8 8 8 8 8 8 8 8 8 8 8 8 8 8 8 8 8 8 8 8 8 8 8 8 8 8 8 8 8 8 8 8 8 8 8 8 8 8 8 8 8 8 8 8 8 8 8 8 8 8 8 8 j *.",
"U D Y @.@.@.^ i > > d f f g -.-.-.;.;.-.;.;.;.<.a.<.<.<.-.g -.;.;.;.;.-.;.-.g g -.g ;.;.;.;.-.;.;.;.;.;.;.;.;.-.g -.f t d f g ;.-.i > > t G ",
"Z   l @.@.+.^ $ @ @ + c B ( ( X.4.7.8.^ 3.f.f.f.l.l.f.f.3.) s.s.9.&.@.%.%.%.o.%.%.! d.d.s.%.o.%.d.u.u.%.%.s.s.X.} O.b z N H ( 9.5.q @ @ w B ",
"b   o _ _ [ ^ $ @ @ + v v ^ ( ( 3.0.9.5.6.8.0.h.f.f.f.f.6.^ s.f.8.%.$.O.u.i.%.%.%.! 8.d.d.8.O.%.d.d.u.%.9.s.8. .( 9.C O m H ^ 7.5.q @ @ w B ",
"U c b _ U I T $ @ @ M S v ^ ( ( 4.6.8.s.8.0.6.5.5.s.f.f.6.( s.f.8.%.$.o.%.i.%.O.%.! %.d.s.8.o.O.d.d.s.u.9.9.O.} ( s.C O n B ~ o.3.q @ @ w c ",
"_ _ ` ..Y D C $ @ @ M D v / ^ ( 3.5.5.8.7.0.3.3.6.6.s.f.3.^ d.d.s.%.%.O.%.u.O.o.o.! u.s.9.O.X.O.d.d.u.%.8.8.O.( ( s.H o z B / 9.) q @ @ t D ",
"U ` ...._ D V $ @ @ M D x ~ } 3.( } ( 4.4.3.( >.3.4.8.s.) ^ f.d.s.%.u.%.%.u.o.o. .! d.f.s.8.X.o.d.d.u.O.O.s.o.( ( s.H o O C X.d.) q @ @ a ! ",
"U _ ` .._ D V $ @ @ M D x ^ 3.X.( ( ^ ( 1.>.~ / ( 3.5.0.3.^ f.d.o.o.u.%.%.%. . .X.! d.d.9.8.X.X.s.d.s.X.) s.X.( ( s.C O n K X.d.X.q @ @ a W ",
"U _ ` ] _ U T $ @ @ M S x ~ 3.X.( / / ( ~ H G ~ ~ >.s.f.3.^ f.d.o.o.%.u.o.O.o.X. .! d.d.s.%.X.o.9.d.s.O.o.O.X.( ( 8.H O n H X.d.X.e @ @ w X.",
"U ..` ] _ Y T $ @ @ M b x ^ 6.3.( ( ( ( G B C ~ >.3.f.f.X.^ d.f.5.%.u.%.O.O.o.X. .) d.s.8.O.X.o.s.d.%.O.X.o.o.X.( O.H O O x ^ 9.X.e @ @ w f.",
"U .._ U U Y T 0 $ $ M b x ^ 6.X.3.X.} / L L L ( 6.8.f.8.( ^ d.s.5.( ! O.%.%.O.X.o.! d.s.8.O.X.o.s.d.O.X.( o.o.X.X.O.B X X O ~ 9.X.t $ $ f f.",
"U ' _ Y U U Q I Q U D b x ( 4.X.X.X.Q R 4.o./ / 6.3.X./ H ^ d.9.5.! ! %.u.u.%.X.O.! s.s.8.O.X.o.8.s.O.X.X.X.o.X.o.%.C X X z ~ 7.o.O.%.9.f.k.",
"I _ Y Y U U Q I Y Q D S x ( 4.3.X.X.Q / o./ N x E X.~ R C R d.9.O.5.O.%.u.d.%.O.O.! %.O.O.O.o.O.O.%.O.X.X.X.X.X.X.O.C X O N ~ X.X.8.s.8.f.l.",
"I Y U U U U Q I U U D S n ( 3.} X.X.} X.} l o X z 3.( ~ H R d.s.O.O.%.O.u.d.%.%.O.! O.O.O.O.X.O.O.O.O.X.X.X.X.X.X.O.C O z B ( o.%.O.d.8.f.l.",
"I U F I I U U I Y U F S n ) 3.3.4.X. .o.R O X X o ( X.X.^ ^ u.s.O.O.o.O.9.d.%.%.%.) 5.O.O.O.X.O.5.5.o.X.X.( X.X.O.O.C O n V / O.u.X.d.f.l.l.",
"F I D I I U I I Q I I A x ( X.3.3.X.X.5.~ z o O x ( X.o.W E O.8.5.o.O.%.%.u.%.%.%.! O.O.O.O.O.O.%.O.O.X.X.X.} X.o.o.H n n C ( O.s.X.s.l.l.l.",
"D D D I I U U I I F I b x ( X.3.X.X.3.o.X.x o z R X.X.X.R T s.s.O.O.5.u.%.%.%.%.%.! 6.X.X.O.o.O.O.O.o.X.X.) ( } o.o.H N B H ( O.%.( s.l.f.l.",
"D D D F I U Y I I F I A N ( 3.X.3.( ( 3.X.W z m ( X.X.X.H T d.%.5.6.5.9.u.u.%.O.o.! O.X.X.O.X.X.5.5.X.X.X.( ( X.o.X.H H C L ( O.O.! 5.f.s.f.",
"S S D F I U Y U W F F A v X.X.( X.X.( 4.( R x v / X.X.( C T s.8.5.6.5.%.%.u.%.O.O.! X.X.o.O.( ( O.X.( ) X.^ ( ( o.o.H K H T ) O.X.^ 6.f.5.s.",
"S b b D F D I I I F I S v ) X.( X./ ^ ( / H x G / X.X.( v T s.8.5.6.5.%.O.u.%.O.O.! ) ) o.O.X.( X.X.) ( ) ^ ( ( o.X.H E E L ( o.X.^ 3.8.O.8.",
"v l . v D S D I I D I D v } ( / / W E / ~ G c B / X./ E x C s.O.O.5.5.8.%.%.%.O.O.! ( X.O.O.X.} o.X.) ( ( ^ ^ ( X.X.H R E E ( X.X.^ X.X.X.O."
};
