/* XPM */
static char *_7359189274f42a2be43a7f9bd178bb2Zn17LreXlj7RoSaS[] = {
/* columns rows colors chars-per-pixel */
"70 70 158 2 ",
"   c #55291A",
".  c #5D2D19",
"X  c #612F1C",
"o  c #6E351E",
"O  c #783E1F",
"+  c #6A3522",
"@  c #6D3925",
"#  c #6D3D28",
"$  c #703721",
"%  c #733A22",
"&  c #7B3E24",
"*  c #743D28",
"=  c #793E28",
"-  c #7E4025",
";  c #75412A",
":  c #7C432B",
">  c #7E492D",
",  c #844325",
"<  c #894524",
"1  c #884921",
"2  c #83442A",
"3  c #89462A",
"4  c #844A2E",
"5  c #8D4C2D",
"6  c #914B27",
"7  c #944D2D",
"8  c #9B4F2A",
"9  c #9C5226",
"0  c #95532E",
"q  c #9C542D",
"w  c #9C582E",
"e  c #844732",
"r  c #854A31",
"t  c #8A4D31",
"y  c #934F31",
"u  c #9A4F30",
"i  c #8D5030",
"p  c #955333",
"a  c #9C5533",
"s  c #9E5A33",
"d  c #935338",
"f  c #9B5638",
"g  c #A15726",
"h  c #A3562D",
"j  c #A9572E",
"k  c #A5592C",
"l  c #AC5C2C",
"z  c #B15E2C",
"x  c #A35532",
"c  c #A45B34",
"v  c #AB5D34",
"b  c #A55C39",
"n  c #AC5E39",
"m  c #B25E33",
"M  c #B05F38",
"N  c #B5622D",
"B  c #BA652E",
"V  c #BE682E",
"C  c #A46033",
"Z  c #AC6234",
"A  c #AF6837",
"S  c #AD6239",
"D  c #B46335",
"F  c #BB6533",
"G  c #B46A36",
"H  c #BC6B35",
"J  c #B4643A",
"K  c #BA673B",
"L  c #B66A3A",
"P  c #BC6B3C",
"I  c #BD703B",
"U  c #C46C2F",
"Y  c #C86F2F",
"T  c #C7712F",
"R  c #C9712F",
"E  c #C06732",
"W  c #C46B34",
"Q  c #CA6E34",
"!  c #C36D3B",
"~  c #C86F3B",
"^  c #C57034",
"/  c #CD7233",
"(  c #CF7835",
")  c #C4723D",
"_  c #CB743D",
"`  c #C7783D",
"'  c #CD793D",
"]  c #D27534",
"[  c #D57935",
"{  c #DB7C36",
"}  c #D1763D",
"|  c #D37C3E",
" . c #DA7E3C",
".. c #B66842",
"X. c #BC6B42",
"o. c #C36E41",
"O. c #C86F41",
"+. c #C57341",
"@. c #CC7541",
"#. c #CC7745",
"$. c #CE7644",
"%. c #C77942",
"&. c #CF7943",
"*. c #CD7A42",
"=. c #CE7847",
"-. c #CE7848",
";. c #CE7948",
":. c #D17742",
">. c #D57B41",
",. c #D37F40",
"<. c #D67C40",
"1. c #D37C45",
"2. c #D67E47",
"3. c #D97E43",
"4. c #D97F44",
"5. c #D37E49",
"6. c #D67F48",
"7. c #DE8136",
"8. c #D6813E",
"9. c #D9803F",
"0. c #DC823D",
"q. c #DD813F",
"w. c #DF833F",
"e. c #E18336",
"r. c #E2853B",
"t. c #E6893C",
"y. c #E6893F",
"u. c #EA8E3E",
"i. c #ED913F",
"p. c #D68142",
"a. c #D98141",
"s. c #DB8343",
"d. c #DE8241",
"f. c #DF8643",
"g. c #DA8247",
"h. c #DE8944",
"j. c #D5824A",
"k. c #D98148",
"l. c #DB8549",
"z. c #DE894A",
"x. c #E18540",
"c. c #E28640",
"v. c #E18646",
"b. c #E68B42",
"n. c #E28844",
"m. c #E38A44",
"M. c #E98F45",
"N. c #E38C4A",
"B. c #E98E48",
"V. c #E79047",
"C. c #EB9146",
"Z. c #E5914E",
"A. c #EC9349",
"S. c #F09647",
"D. c #F09649",
"F. c #F39A4B",
"G. c #E59150",
"H. c #EA9B55",
/* pixels */
"Q ] Q Q ! D x x E W m c x $.3.2.$.J P d.<.~ P _ $.! P D n c | d.| } } } | 3.| _ ! c ' m.d.a.>.} _ _ _ @._  .d.c. . .:._ X.b 3 u J $.@.:.@.O.",
"Q / Q Q F x u 7 q 8 x x q =.g.4.&.+.$.v.d.:.@._ ! P J n c k | q. ._ } } } | | _ ! v ' f.a.9.| _ _ ) _ @._ <.a.c.b.c._ J S p = & 7 K $.>.@.O.",
"Q Q Q Q F x u &   o 7 h a $.4.2.2.1.3.c.a.3.>.} ~ P J J n v | d.| _ _ _ _ | } ~ P c ,.c.a.f.<._ _ ! ) _ _  .3.d.b.c.) b a t 5 a v ! :.@.! _ ",
"W W Q ] Q F h % X , D v a -.g.k.5.6.v.v.3.d.q.| $.! J J n c | q._ ! _ _ } | ~ E ! s ,.m.c.c.a.@.+.! ) _ } | 3.9.b.b.) S & & , 5 n ! | @.W >.",
"F W Q ] Q j , + 2 q v D a $.4.g.g.4.f.N.3.d.c.>.$.! K J J v  .q._ ! ! _ } } ! E P a <.M.M.m.<.) $._ O._ $.>.>.| d.f.P 5 @ + * e b P  .o.m ) ",
"E W Q ] W 8 o $ h E E H s @.2.4.2.g.g.f.<.d.c. .>.! L n J c  .q._ ! _ ~ _ _ ~ ! F p s.F.D.A. .@.$.$.+.@._ } | _  .<.K 3 a a e a J P >...2 3 ",
"W W Q ] Q m 6 8 D ] } _ s $.2.3.>.2.l.g.<.d.b. .:.! L v J v | 3._ _ ! ! ! _ _ H D q a.F.F.D. ._ $.$.@._ _ } } _ | | L 5 J ! a a J J @.M 2 $ ",
"W W W F Q W j h h F ~ ^ a o.-.1.>.2.2.3.2.c.b. ._ ! J J L S } | ~ _ E E ! _ ! F m q a.F.F.D.3.@.$.>.>._ } | } _ 9. .L 3 S _ b n O.! _ J 7 = ",
"F F m 7 x E z h 0 j W ! a o.+.$.=.>.2.3.3.m.r.| @.! K K K S _ } ~ W ~ _ _ } ! D v q f.F.F.A.<.@.:.<.3.| } >.<. .c.c.P 4 L $.J P } >.>._ K J ",
"F F q X X h F h 9 j ~ ! p o.! O.@.2.5.<.<.b.t. .:._ ! ! K S ~ ~ ~ ~ } } _ _ ~ D v q f.D.D.A.>.@.$.>.<.>.| 3.3.a.m.c.! p ! | _ _ >.3. . .>.! ",
"F F 8     6 m h j F ~ ! y X.X.o.+.1.2.>.>.c.c.>.>._ ! ~ ! v ! _ _ _ ! ! ~ _ H D m q f.C.S.C.@.o.O.$.:.>.| 3.3. .b.c.) a ) 3.d.<.<.3. . ._ x ",
"D F F , o j F F F F ! W p X.X.P o.=.>.1.3.c.q.>.>._ ! ~ ! S ! ] } Q ! W ! ! F D m k f.D.F.C.@.o.o.+.>.} >.>.>. .m.c.! a _ d.d.>.3.| | | P x ",
"m E Q z N W W / ~ E _ ! a ..K ..X.+.$.>.c.q.q. .>._ ! ~ +.G _ _ _ _ _ ! ! E F F D k m.D.F.M.@.o.o.@.>.>.| | >.| c.c.! p !  .3.>._ ! J J v x ",
"D W Q F F / Q _ ~ W  .! p X.....X.@.$.>.3.c. .| :.@.! _ +.G _ ~ _ _ Q ! W E ! F D v f.D.F.b._ o.+.$.>.>. .3.>.| q.c.P a P >.>.@.O.J x 7 x D ",
"E Q Q W Q ] / / F E  .~ p ....o.o.@.$.3. . . .| >._ @.@.+.D ! ! E ! ! _ _ ~ ! E F v m.A.A.g.+.o.@.:.} _ <.3.>.| d.c.! c ! >.| ~ ! M a 7 n P ",
"Q / ] Q ] { ] ] E W  .^ p o.o.@.$.$.1.d.q.c.c. .>.@.@._ ! G _ _ E F W _ _ _ ! H F Z f.M.M.g.! @.$.$.$.K ) <.<.| f.c.! J ! } | ~ ! D x x n ! ",
"W ] ] / [ { { { Q _  .Q p +.@.$.1.:.$.c.c.q.q.>.:.@.~ ! ! G _ _ F F K E _ _ E H F Z f.m.m.g.O.@.$.$.@.L K >.f. .c.q.P n ! :.$.! P ! v v D ! ",
"E W ] ] { { 7.7._ } | W p K v J P ! ) q.c.r.{ :.:.@.@.! P D ' _ F D D m H F F F F Z a.m.m.g.+.@.:.} J f J | f.d.c.q.! b ! } @.! ! ! J n J ! ",
"m j ~ ] { 7.{ e.} ] } E 0 K a a v K ! 3.r.b. .| >.>.@.! K J <.} H m m x v v v D F v <.f.m.a.$.>.>.<.J r J a.v.f.d.q.) c ) _ :.! ) _ P K K _ ",
"v j E ] { { { 7.] } } W 0 P x a x K ! }  .q.d.| >.>.@.O.K L <. .! m v 7 0 c v F ^ S <.c.f.<.:.<.<.@.P v P d.m.m.a.9.' S _ _ >.$.:.} ! _ ! _ ",
"< q Q ] { { 7.e./ ~ / W 5 v x a v P >.} | | <.>.>.>._ ! P I m.c._ J v a q v F _ b.W a.m.f.a.<.f.f. .P L | m.b.m.q.q.' D _ ! >.>.<.| P ! _ a.",
"X , Q / { { 7.7._ H H F , x x a v K 3.>.:.>.3.| :.:.) ! P ` C.m. .^ F h v _ _  .m.^ f.B.b.f.a.c.f.<.,.>.m.M.C.M.q.c.' J ) P @.>.3.$.K L _ v.",
"% & F Q [ { { 7./ Q Q D 3 x x c M ! g.>.:.3.<.} $.$.) ! P I m.M.c. ._ D D ! _ | d.Z 8.M.m.p.<.f.f.p.f.<.p.M.D.M.c.f.' L ! K ! @.3.>.! ) | c.",
"m l / [ ] ] ] 7.] F F q 3 x x v J ) g.3.>.<.>._ _ $.) ! K P a.b.q.f.q.! a c _ _ <.c p.b.h.p.p.f.f.a.b.a. .f.S.M.f.d._ K ! J n ! 3.>.) _ | m.",
"Q Q ] { ] ] / / N j j , 2 n n J K $.g.3.r.r.$.$.>.$.) ! L L g.m. .r.d.! a F >._ | Z a.b.m.a.p.f.a.f.C.f.a.f.A.m.f.q._ L ! L x J <._ _ $.,.m.",
"] [ { { ] ] / U j h l x 7 P J ! O.$.<.>.r.q._ } >.$.) ! L P g.c.} q.| L L ' d.| } P m.M.M.f.a.f. .a.b.m.f.f.A.m.q.9.^ L _ P K @.) P _ | <.m.",
"] { { { ] ] ] / N l k k w _ ! @.+.$.4.>.r. ._ _ >.$._ ! L L 3.a._ _ ! K ) c.c.c.d.` m.C.M.f.a.f.| | m.f.m.m.C.b.r.9.^ K _ ) @.:.+.L ) >.<.c.",
"] e.r.e.] ] ] ] W V z l w ' @.=.+.$.g.3.3._ _ :.:.$.) ! K L p.<._ _ K P _ g.q.c.v.` m.M.C.m.p.a.|  .f.a.f.b.C.m.f.9.) L _ ! _ >.$._ ) >. .d.",
"[ e.t.7.] [ { ] R Q E B c >.$.>.$.>.g.3.3.>.} <.>.$.) P L G p.<._ _ _ _ >.f.c.c.c.) m.C.A.m.p.f.3.<.f.p.a.m.C.m.f.q._ L _ P ! <._ | _ ,.>.a.",
"7.t.r.{ [ { e.{ / / Q F c | ' >.$.2.g.<.<.>.>.3.<.$._ P S G a.a.| |  . .<.d.d.v.c.H m.A.C.m.a.f.f.f.f.<.f.h.C.m.f.c.| K ) K ! >.}  .>.<._ _ ",
"r.r.e.7.7.7.e.{ ] / ] / c  .' $.+.@.$.>.>.>.>.3.<.:.$.! S G a.<._ |  . .<.d.c.c.m.L a.C.b.m.p.d.r.f.f.,.f.f.C.m.f.b.| L _ K +.3.|  . .| F D ",
"e.e.7.7.e.7.7.{ [ ] [ ( c  . .@.J K ! >.$._ >.<.>.>.:._ S G a.| _ _  .>.3.d.c.c.m.P a.b.M.b.p.f.p.h.a.| v.m.M.m.m.b.| L ! L o.<.>. .3.<.! ! ",
"7.7.{ { r.7.7.{ { [ { ( Z 8.a.,.! K ! >._ _ >.>.$.,.,.1.S G f.,._ | 9.<.3.d.c.v.c.L s.M.b.m.p.a.&.a.a.f.m.m.C.m.b.b.' K P L K >.} | a.a.| b.",
"e.7./ N [ { { 7.{ ] { ] Z  .9.<._ ! @.4.$._ >.| _ <.2.,.S G c.p.) 9.9.<.f.d.c.v.f.G a.b.b.m.a.g.@.&.<.m.c.c.A.m.m.m._ J K J K $.| } a.b.c.b.",
"e.7.Q k [ { { 7.{ { 7.' Z 9.9.<.:._ &.4.>._ >._ _ >.$.+.a L m.a._ |  .a.c.f.c.b.q.L a.M.A.b.f.h._ +.,.f.f.m.C.m.m.b.' S J S J _  .} f.C.c.M.",
"e.7.{ ] 7.{ { { { 7.e.( Z a.9.a.2.1.&.g.3.>.>.@.>.1.) L s L b.f.| | <.f.d.f.c.b.c.L f.V.A.b.m.m.,.' ,.a.f.m.C.m.m.b.' b b n S P >.}  .M.c.b.",
"e.7.{ { 7.{ { { { { 7.] Z 9.9.<.g.k.>.g.g.>.>._ >.2.) K L ) b.f.<.<.<.d.d.v.c.c.c.H a.b.C.b.h.s.,.&.,.s.m.m.C.f.c.b.' a f f b L ) P &.m.d.m.",
"{ 7.{ { e.{ { { { 7.{ ] Z 9.9.<.2.l.,.p.f.<._ $.>.p._ ) I ) b.c.,.<.| 3. .c.m.v.v.H m.V.A.m.p.p.,.,.a.a.m.b.C.f.a.b._ a d d f s b b ) d.a.c.",
"{ 7.[ { e.{  .7.{ { 7.] Z a.9.p.2.l.>.<.f.a._ >.g.k.,.>.) ) b.m.p.<.} | | f.m.v.m.L m.B.C.f.| p.p.<.a.s.c.b.M.m.a.b.` b a b K y @ = L <.<.f.",
"[ { ] { t.7.{ 7.7.{ 7.] Z h.m. .2.l.2.2.f.g._ 2.g.g.g.<.) ) b.m.<.>.|  .q.v.c.d.f.G m.m.a.a.p.a.p.<.h.h.a.m.M.m.a.q.) n L J c : : 2 J ' |  .",
"] ^ ~ 7.u.7.{ 7.{  .{ ( S m.b.a.g.g.g.2.2.>._ g.l.l.f.p.) I b.m.<.| _ |  .f.3. .9.G m.a.L ,.<.p.<.a.h.f.f.b.b.f.' _ G S b a a L $.J ! | | a.",
"[ Q E 7.i.e.{ q.{  .{ / Z h.b.p.,.g.2.,.<._ @.l.l.z.N.g.) I b.m.<.| | ' _ | | _ | G b.h.` <.p.p.p.a.h.f.m.b.M.f._ _ Z c b b L a.m.+.<.<. .a.",
"/ U T 7.C.r.{ 7.[ { [ ^ Z 9.h.>.,.g.g.,.2.$.>.N.z.N.z.g.` I b.c.| | { _ _ ' _ ^ W Z B.m.a.<.<.a.a.h.a.h.m.b.M.f.` ' c p b n ! f.B.<.g.,.| a.",
"U U Y [ t.{ [ 7.[  .] ^ Z 9.a.>.2.g.g.2.g.>.<.B.N.N.z.g._ ) m.m. .{ { '  .| ^ F D k m.m.s.<.<.a.f.f.h.h.m.b.b.a.) ' Z t s J ! v.B.a.a._ |  .",
"U U / ] r.{ { { [ / / H Z 9.9.,.,.l.l.g.g.2.g.N.z.N.N.g.' I m.m.a.{ 7._ _ ~ F D c w b.m.a.<.<.a.m.b.m.m.m.C.V.a.) ,.Z 4 b J P f.B.p.| ^ '  .",
"B E R / 7.{ ] { ] ^ _ F c <.9.<.<.f.z.l.l.z.l.G.z.N.N.g.' L <.a.a. .{ ' _ H D v h 0 b.m.a.| ,.p.m.b.h.h.m.C.m. .) ,.Z 4 a L L a.B.a._ ! _ | ",
"m B T ] { { Q ] ( Q ~ F c &.8.,.p.l.l.l.l.B.N.N.l.l.z.g.' J ' p.a. .9.>._ H D v h w h.m.f.<.p.p.h.h.f.h.m.m.a. .) p.c r a J L <.m.<.` H ! _ ",
"z z R ] { [ Q ] / Q ~ F c ` &.&.g.f.g.l.z.Z.N.z.l.z.z.z.&.G a.f.<. .| _ _ P D v h w h.h.a.<.p.<.m.f.r.h.h.m.s.<.) p.c 4 p v L p.f._ ! F H ! ",
"z l U ] { ] U ] ] ^ ~ F c ) ) @.>.g.g.p.z.N.N.z.l.z.N.h.&.G p.f.,.|  .' | W D v h s h.h.a.<.<.<.h.a.q.q.m.m.a.| ) | s 4 p n J <.a.) L S D v ",
"V z B [ { / U ] ] / F v s P ` ` $.p.1.p.z.z.z.N.N.Z.Z.N.&.A ' p.<.{  .' | ` F F m k m.f.s.,.' p.a.f.9.a.h.f.p._ ) ' c 4 t a L >.| ` F c v c ",
"B l V { { ] R Y / F l q w P ` %.@.2.1.$.p.l.l.Z.H.G.G.Z.&.G ' <.<.{ | |  .' W ) ^ G m.f.s.<.' <.a.9.q.8.a.a.a.) ! ' w > r a L ,.<.` c - 0 x ",
"g . 1 ] [ ] / / Q l x 7 p P P ) &.>.1.L +.g.j.l.Z.N.z.z.+.I p.p.,.{ | |  .| _ |  .H s.f.p.| _ | f.8.9. .| p.p.) ! ' w 2 p b K <.<.` S 3 7 a ",
"9 . O U U Q / ] Q N l 0 0 L K P +.&.,.&.=.1.j.j.l.l.h.l.%.L p.g.,. .| ' 9.q.| |  .L ,.a.p.>.` | f.f.8.| ,.p.<.^ P <.s > y b L >.<.) P v c a ",
"B 6 9 U B N E / / E D k 0 L K P @.=.,.p.1.1.=.&.&.p.p.l.%.P a.g.,. .| _ 8.q. .' | G | a.p.>.) ' f.f.p.8.<.,.' ! P p.s ; t a J _ >.) P D c 7 ",
"U U R / V l N / / Q F l 0 L L P +.&.&.1.>.1.+.+.-.=.j.j.+.L s.s.p. .| ' 8.9.' _ _ H 8.p.<.' ` ' f.s.8.| ,.,.' ! P p.c * 2 p L <.` P W F D j ",
"B Y / / U l l / Q E W l 0 L ) ) P ) P @.@.+.P X.+.&.1.p.I G h.g.p.| 8.| 8.8._ _ ^ L a.g.p.>.) _ a.p.8.' ' p._ P P p.c * > a ) a._ P P H ) H ",
"B U R / U l j Q Q U W j 5 L +.) P K L K o.X.J K P +.&.5.+.L h.a._ _ 9. .| | ^ ^ ) L s.a.<.,._ ` p.a.p.) P p.` P P p.s ; t b ) a._ ' H v ! G ",
"B U R E U B V F E U V k 5 J @.) P L L P J c x J J X.p.j.+.L h.a.` `  . ._ ' ` ) ^ L a.a.p.| _ _ <.a.p.' ` ' ) P P ,.c : t b ) f.' &.G & c ) ",
"B / R E U V F B V B B q 5 J &.+.P K P P x a a J X.+.l.l.) L f.g.&.| 8.| ' ' _ ) ^ H s.p.p.' ) _ p.a.| ' ) _ _ ) P ' c : > i L <._ &.) 0 n g.",
"V / U V B V F N B B N q 5 L &.` +.) ! L n n n K &.1.k.1.P G f.p.&.P H '  .| ' ) ` H h.p.,.' ` _ p.a.' ` P ) _ ` ) ' s # # > J <.' ' ' ' 2.N.",
"N ^ U V B V F N F B l q 5 P @.) ) ) F S @._ L L &.+.) L c G f.<.&.G L | 8.8.| ` ' H p.p.,.' ` _ 1.p.' ` ) ) _ ` _ | s # # 4 J >._ ' ,.<.g.m.",
"N U V V B B F N V F l k 5 P +.+.) ) F K _ L p 5 S ) J S s Z a.<.' &.' | 8.a.| ' ' G | ' ' ' _ ' ' | ' ` ) ) ` ` ) ' s # : p J ) ` ,.p.,.h.N.",
"N V B B B B F N V B l k t P +.P ) ) ! ) ! 3 % @ 2 +.K J c Z a.p.' ' | ' 8.a.| | ' L ' ' ' ' ` ' ' ' ' ) ) ) ` ) ` ' s ; 2 p L _  .' a.,.f.m.",
"N B z N N B B N V N N k t I +.+.@.) ^ _ S : @ @ = P ) ) G G 8.p.' ' ` ' <.a. .| | P &.' ' ' ` ' &.&._ ) ) P ` ) ' ' s : r p L ' 8.` a.h.h.B.",
"z N l N N N N N F N N h 5 P ` +.+.) ) ' J 2 = : 5 P ) _ G S ' ,.&._ ' '  .8. . .| G ' ` ' ' ' ' | ' ' ) ) ) P ) _ ' c t t s P ' p.) p.N.N.Z.",
"l l l N N N B N N z N q 5 P ` +.` ) +._ ) 5 = 2 S ) ) ` S Z p.p.&.' &.8.| 8. .| | L &.` ` ' ' ' ' ' ` ` ) P P P _ _ c p p c P ' 8.I p.N.h.N.",
"l l l z N B V N N z N h p P +.) +.P P +.) G 2 y P ) ) ) c C p.| &.&.&.<.8.8.| ' _ L ' ) ` ' ) ) &.&.) ) ) P P ) _ ` c b s c P ' ' L &.z.p.h.",
"k k j z N V V B N z z h 0 ) ) P ` ! P @.P S 5 0 L ) ` P s C p.,.&.&.&.|  .8. .' ' L ) ) _ ' P P ' ` P I ) L P P _ ` c b c n P ' ` G -.l.&.p.",
"k 9 q l z l N N N z N k w I ) P ) L L P L c 5 x L ) ) K w C p.,.&.&.&.| ' 8.| ' ' H I I _ ' ) P ` ) I P I L P P _ ^ c S S Z P ' ) G +.,.` ,.",
"9 < o 9 l k l N D l N j p ! P L L D S L J x 7 a L ) L S 0 s p.' ' &.&.,.|  .| ' ' L P ) ' ' ) ^ @.) I P P L L P ` ) c S S S K ` ) L ) ` I ' "
};
