/* XPM */
static char *f284ff3179bc4351cd4a0c4cf5d19bd6Dt0ddlalSmGQiqHB[] = {
/* columns rows colors chars-per-pixel */
"70 70 178 2 ",
"   c black",
".  c #060608",
"X  c #141013",
"o  c #361F0F",
"O  c #2F1A12",
"+  c #371E14",
"@  c #3C2313",
"#  c #3B1725",
"$  c #412614",
"%  c #452915",
"&  c #4A2C17",
"*  c #472C18",
"=  c #4B2C19",
"-  c #522D1A",
";  c #5D2D19",
":  c #4E301A",
">  c #54321A",
",  c #5B351C",
"<  c #5E391C",
"1  c #612F1C",
"2  c #63341E",
"3  c #6E351E",
"4  c #653C1E",
"5  c #693F1F",
"6  c #71381F",
"7  c #783E1F",
"8  c #5C3221",
"9  c #643521",
"0  c #693522",
"q  c #663C21",
"w  c #6B3C22",
"e  c #6D3D28",
"r  c #703721",
"t  c #743C24",
"y  c #7B3E24",
"u  c #733D28",
"i  c #7A3E28",
"p  c #68401F",
"a  c #6C4121",
"s  c #734424",
"d  c #7A4426",
"f  c #774924",
"g  c #7C4A26",
"h  c #75412A",
"j  c #7B442B",
"k  c #7D4A2B",
"l  c #844325",
"z  c #894524",
"x  c #824E26",
"c  c #884921",
"v  c #83452A",
"b  c #89462A",
"n  c #844B2A",
"m  c #8C4D2D",
"M  c #914B27",
"N  c #944C2D",
"B  c #9B4F2A",
"V  c #865129",
"C  c #8C542B",
"Z  c #8F582B",
"A  c #9C5226",
"S  c #94542D",
"D  c #9C542D",
"F  c #965A2D",
"G  c #9A5B2E",
"H  c #844732",
"J  c #814930",
"K  c #8A4C31",
"L  c #924F31",
"P  c #9A4F30",
"I  c #8D5030",
"U  c #955332",
"Y  c #9B5533",
"T  c #955A31",
"R  c #9C5A32",
"E  c #A15726",
"W  c #A3562C",
"Q  c #A9572E",
"!  c #A5592C",
"~  c #AC5C2C",
"^  c #B15E2C",
"/  c #A35532",
"(  c #A35C34",
")  c #AB5D34",
"_  c #A55C3A",
"`  c #AB5E39",
"'  c #B35E32",
"]  c #9D602F",
"[  c #A2622E",
"{  c #AA672F",
"}  c #B5622D",
"|  c #BA652E",
" . c #BE682E",
".. c #A46232",
"X. c #AB6334",
"o. c #AE6934",
"O. c #AD6239",
"+. c #AD693A",
"@. c #B46334",
"#. c #BB6532",
"$. c #B36C35",
"%. c #BC6934",
"&. c #B3653A",
"*. c #B9673B",
"=. c #B5693B",
"-. c #BC6B3B",
";. c #BA7137",
":. c #BD713A",
">. c #E64539",
",. c #C46C2F",
"<. c #C86F2F",
"1. c #C7712F",
"2. c #C9712F",
"3. c #C06732",
"4. c #C46B33",
"5. c #CA6E33",
"6. c #C36D3C",
"7. c #C86F3B",
"8. c #C67034",
"9. c #CD7233",
"0. c #C4733C",
"q. c #CB743D",
"w. c #C6783B",
"e. c #CC7A3D",
"r. c #D27534",
"t. c #D57935",
"y. c #DB7C36",
"u. c #D1763D",
"i. c #D47B3E",
"p. c #DA7E3B",
"a. c #AD2F45",
"s. c #B06541",
"d. c #BC6C42",
"f. c #C46F41",
"g. c #C86F41",
"h. c #C57341",
"j. c #CB7441",
"k. c #CD7644",
"l. c #CD7A43",
"z. c #CE7848",
"x. c #D17640",
"c. c #D17741",
"v. c #D57B41",
"b. c #D47C41",
"n. c #D67D41",
"m. c #D67E46",
"M. c #D97F44",
"N. c #D57F48",
"B. c #DE8136",
"V. c #D5813E",
"C. c #DD813B",
"Z. c #E18336",
"A. c #E28439",
"S. c #E6893C",
"D. c #EA8E3E",
"F. c #ED913F",
"G. c #A08662",
"H. c #D68242",
"J. c #DA8141",
"K. c #DC8241",
"L. c #DC8342",
"P. c #DF8442",
"I. c #DA8147",
"U. c #DE8845",
"Y. c #DB8448",
"T. c #DE8A4C",
"R. c #E18641",
"E. c #E28641",
"W. c #E58A41",
"Q. c #E48A44",
"!. c #E98D43",
"~. c #E28D4A",
"^. c #EB9144",
"/. c #E5914C",
"(. c #E4D2AA",
"). c #A3A7C2",
"_. c #F5FFE8",
"`. c #E3E6FF",
/* pixels */
"5.r.5.5.7.@./ / 3.7.' / / k.M.m.k.&.  K.b.7.*.0.j.6.*.@.` ( u.K.i.u.u.u.i.M.i.e.7.( e.Q.K.J.v.u.e.q.e.j.q.i.K.E.p.i.c.q.d._ b P &.j.j.c.j.g.",
"5.9.5.5.#./ P N D B / / D z.I.M.l.  X   M.q.7.q.6.-.&.` / ! e.C.i.e.e.u.u.i.i.q.6.) e.P.J.i.i.q.q.0.q.j.q.v.M.E.W.E.e.&.O.U i i P *.j.v.j.g.",
"5.5.5.5.#./ P y ; 3 N W Y k.M.m.m.  X X     0.8.-.              q.6.q.7.q.u.q.7.        b.J.i.0.7.7.0.e.e.i.M.K.S.E.0._ Y K m P ) 7.c.j.6.q.",
"4.4.5.r.5.#.W r 1 l @.) Y z.I.I.N.  X X X X       X X X X X X X       -.8.q.6.  X X X X   V.e.6.6.6.7.e.u.c.M.p.W.W.0.O.i i l b ` 7.v.j.7.v.",
"#.4.5.r.5.Q l 0 l D ) @.Y k.M.I.m.b.  X X X X X X X X X X X X X X X X     3.  X X X X X X   :.&.*.-.6.0.e.v.v.i.P.P.-.K w 0 u H _ -.p.f.' 0.",
"3.4.5.r.4.B 3 r W 3.3.%.R j.m.M.b.m.  X X X X X X X X X X X X X X X X X X   X X X X X X X   ..( O.=.*.6.q.u.i.e.p.b.*.b Y Y H Y &.-.c.&.v b ",
"4.4.5.9.5.' M D @.r.u.q.R k.  M.c.z.b.  X X X X X X X X X X X X X X X X X X   X X X X X X X   m Y X.=.-.q.e.e.e.i.i.-.K &.6.Y / &.&.j.&.v r ",
"4.4.4.#.5.4.Q W W #.7.8.Y   X   j.j.0.-.  X X X X X X X X X X X X X X X X X X   X X X X X X   s n R @.-.8.e.e.e.C.p.-.v &.q./ ` g.6.q.=.N i ",
"#.#.' N / 3.^ W D Q 4.6.  X X   h.0.-.-.        X X X X X X X X X X X X X X X   X X X X X X X   s C ( @.6.e.i.i.E.P.-.n -.j.&.-.u.c.v.e.*.&.",
"#.#.D 1 1 W #.W A Q 7.6.  X X X         X X X X X X X X X X X X X X X X X X X   X X X X X X X X   f S ..%.e.i.p.Q.E.6.U 7.i.e.q.v.M.p.p.c.7.",
"#.#.B - - M ' W W #.7.6.  X X X X X X X X X X X X X X X X X X X X             X X X X X X X X X   q x R o.0.i.i.W.E.0.Y 0.M.K.b.M.M.p.p.q./ ",
"' #.@.l 6 Q #.#.#.#.7.4.U   X X X X X X X X X X X X X X X X X X   `.`.`.`.`.`.  X X X X X X X X X   s m ( -.0.u.E.E.6.Y 0.K.K.v.M.i.i.i.*./ ",
"' 3.5.^ } 4.4.9.7.3.q.6.S   X X X X X X X X X X X X X X X X X   `.`.`.`.`.`.`.`.  X X X X X X X X X   g S X.-.q.C.E.-.Y 6.p.M.v.e.6.&.&.) / ",
"#.4.5.#.#.9.5.q.7.4.p.6.U s.  X X X X X X X X X X X X X X X X   `.`.`.`.`.`.`.`.`.  X X X X X X X X   w n ( @.6.i.P.-.Y -.v.v.j.g.*./ N / @.",
"3.4.5.4.5.r.9.9.#.3.p.4.S             X X X X X X X X X X X X   `.`.`.`.`.`.`.`.`.  X X X X X X X X   , f S ..%.i.C.-.( 6.c.i.7.6.` Y N ` -.",
"5.9.r.5.r.y.r.r.3.4.i.8.  X X X X X X X X X X X X X X X X X   `.    `.`.`.`.`.`.    X X X X X X X X   = 2 x G @.e.C.-.` 7.u.i.7.3.@./ / ` 6.",
"4.r.r.9.t.y.y.y.5.9.p.  X X X X X X X X X X X X X X X X X X   `.).>.    `.`.    >.  X X X X X X X   $ % - s F X.0.i.%.X.7.c.j.7.-.6.) ) @.6.",
"3.4.r.r.y.p.B.B.q.u.  X X X X X X X X X X X X X X X X X X X   `._._.>.`.`.`._.>._.  X X X X X     $ @ + & a Z o.0.u.-._ 7.u.j.7.7.7.&.) &.7.",
"' Q 7.r.y.B.y.A.u.r.  X X         X X X X X X X X X X X X X   `.`.    `.`.`.        X X X X X X X   @ O & a Z o.8.u.8.( 0.e.c.7.0.q.-.*.*.7.",
") Q 3.r.y.y.y.B.r.q.  X   ) v w 2     X X X X X X X X X X X   `.`.`.`.`.`.`.`.`.`.  X X X X X X X   @ @ - s F $.w.e.q.O.q.q.c.j.c.u.6.q.7.e.",
"z D 5.r.y.y.B.A.9.7.    l S d 9 , , ,   X X X X X X X X X X   `.`.`.`.      `.`.  X X X X X X X X   @ $ < g ] ;.0.i.q.@.q.7.c.c.v.i.-.7.e.J.",
"1 l 5.9.y.y.B.B.q.%.%.X.t v t 2   , 4 ,   X X X X X X X X X X   `.`.# a.a.a.# `.  X X X X X X X   % % - a V o.w.e.C.e.&.0.-.j.c.M.j.*.-.q.E.",
"r y #.5.t.y.y.B.9.5.7.~ t v t   X   s   X X X X X X X X X     X   `.# a.a.a.#   X X X X X X X   % % = > 5 Z $.e.i.C.e.=.6.*.6.j.M.v.6.0.i.E.",
"' ~ 9.t.r.r.r.B.r.#.@.S i v y   X     X X X     X X X X X X X X       a.a.a.  @     X X X     % % % > , a Z ;.e.i.V.q.*.7.&.` 6.M.v.0.q.i.Q.",
"4.5.r.y.r.r.9.9.} Q Q l i L m   X X X X X   X X X X X X X X X     `.`.      $ @ $ o       % % % & = < q g F :.e.i.p.q.-.7.=./ &.b.q.q.j.b.Q.",
"r.t.y.y.r.r.9.,.Q W Q Y m ) Y (     X X X   X X X X X X .     (.  `.`.`.  (.    . @ = > > = = = = > p g V [ e.e.V.p.8.-.q.-.*.j.0.-.q.i.b.Q.",
"r.y.p.y.r.r.r.9.} ~ W W D 6.=.=.O.O.      X X X X X . . (.(.(.(.(.  `.`.  (.(.(.(.. > < < , , , , 4 g V ..;.V.C.C.i.8.*.e.0.h.j.h.-.0.i.b.E.",
"r.Z.A.Z.r.r.r.r.4.| ^ Q G q.0.h.=.=.$.G   X X X X   (.(.(.(.(.(.(.  `.`.  (.(.(.(.. , 4 a a 4 a a g S R $.w.U.P.C.p.0.=.e.7.q.c.j.q.0.c.i.K.",
"t.A.S.B.r.t.y.r.2.5.3.| ( c.j.l.h.-.=.R   X X X X   (.(.(.(.(.(.(.(.  `.  (.(.(.(.(.. a f f g x C S X.$.w.i.Q.P.C.C.q.=.q.-.6.b.e.i.q.b.b.J.",
"B.S.A.y.t.y.Z.y.9.9.5.#.( i.e.l.h.h.:...S   X X   (.(.(.(.(.(.(.(.(.(.  (.(.(.(.(.(..   f g V F ..o.:.8.i.H.^.E.P.E.i.*.0.*.6.b.u.i.c.b.e.e.",
"A.A.Z.B.B.B.Z.y.r.9.r.9.( i.e.j.6.-.-.&.( S   X   (.(.(.G.(.(.(.(.(.(.(.(.(.(.(.(.(.. (.    C G $.w.e.e.H.P.^.E.P.W.i.-.q.*.h.M.i.i.i.i.@.@.",
"A.Z.B.B.Z.B.B.y.t.r.t.9.( i.i.h.=.@.=.-.&.  (.(.(.G.G.(.(.(.(.(.(.(.(.(.(.(.(.(.. (.(.(.      R X.w.e.e.J.Q.Q.E.E.Q.i.-.6.&.f.b.c.i.M.b.6.8.",
"B.B.y.y.A.B.B.y.y.t.y.9.X.i.J.b.-.*.-.q.-.O.  (.(.(.(.G.  G.(.(.(.(.(.(.(.(.(.(.(.(.. (.(.(.(.(.(.      H.J.Q.P.Q.E.e.=.-.&.*.c.u.i.J.J.i.W.",
"Z.B.9.} t.y.y.B.y.r.y.t.X.i.C.b.0.6.j.b.0.  (.(.(.(.(.G.  G.(.(.(.(.(.(.(.(.(.(.(.(.. G.(.(.(.(.(.(.(.(.          P.0.&.=.&.&.j.i.u.J.W.E.!.",
"Z.B.5.! t.y.y.B.y.y.B.e.X.C.C.b.j.q.e.    (.(.(.(.(.(.  G.G.G.(.(.(.(.(.(.(.(.(.(.(.. G.(.(.(.(.(.(.(.(.(.(.(.(.  i.:.( ) ` &.0.i.u.P.^.E.!.",
"Z.B.y.r.B.y.y.y.p.B.B.9.X.J.C.        (.(.(.(.(.(.(.G.  G.G.G.G.(.(.(.(.(.(.(.(.(.. G.G.G.(.(.(.(.(.(.(.(.(.(.(.  ;.o.m U Y _ -.c.j.p.!.E.W.",
"Z.B.y.y.B.y.p.y.y.y.B.t.      (.(.(.(.(.(.(.(.(.(.(.G.. G.. G.G.G.G.G.(.(.(.(.(.(..   G.G.G.(.(.(.(.(.(.(.(.(.(.  [ F d k K Y &.6.-.l.Q.K.Q.",
"y.B.y.y.A.p.y.y.y.B.y.t.o.V.i.b.l.  (.(.(.(.(.(.(.(.(.(.(.(.(.G.  $ . G.. . G.G.G.G.G.G.G.. . . %   G.G.G.G.G.(.(.(.(.(.(.(.  U Y / 7.J.M.E.",
"y.B.t.y.A.y.p.y.y.p.B.t.X.  (.(.(.(.(.(.(.(.(.(.(.(.G.G.. @ % . G.G.. . . . . . . (.(.. % %   G.G.G.G.G.G.G.(.(.(.(.  , 9 j Y v 0 t &.i.i.K.",
"t.y.r.y.A.p.y.B.B.y.B.t.X.  (.(.(.(.(.(.(.(.(.(.(.G.G.  @ @ & . G.G.G.(.(.(.(.(.(.(.(.. % % %   G.G.G.G.G.G.G.G.G.G.  - 0 d v 0 w d X.q.e.p.",
"t.9.7.C.D.B.y.B.y.p.y.  (.(.(.(.(.(.(.(.(.(.G.G.G.  & % @ . G.G.G.G.G.G.(.(.(.(.(.. % % @ %     G.G.G.G.G.G.G.G.  % $ & - 8 u C o.( &.8.e.i.",
"t.4.3.B.F.Z.y.C.y.p.p.  (.(.(.(.(.(.(.G.G.G.G.    * * %   (.. G.G.G.G.G.G.G.G.(.. (.  % @ & > ,         G.G.G.G.  $ @ $ = , f ..-.o.0.q.e.b.",
"9.,.1.B.^.A.y.B.t.y.t.8.  (.(.G.G.G.G.G.G.G.  * * * *   (.(.(.. . G.G.G.G.G.. . (.(.(.  & - , 4 s f a 4           % @ @ & , g ..:.-.e.q.e.i.",
",.,.,.t.S.y.t.B.t.p.9.8.  G.G.G.G.G.G.      % * * *   (.(.(.(.(.(.. . . . . (.(.(.(.(.(.  > 4 s x V x f a 4 , > % & $ @ = q n o.w.0.e.0.e.i.",
",.,.5.t.A.y.y.y.t.9.9.#.  G.G.G.      > = & & : :   (.(.(.(.(.(.(.(.(.(.(.(.(.(.(.(.(.(.(.  w g F ] F V g f a < > > & @ > s C -.l.e.e.8.e.i.",
"| 3.2.9.B.y.r.y.r.9.q.#.        g a , : = = : ,   (.(.(.(.(.(.(.(.(.(.(.(.(.(.(.(.(.(.(.(.  4 g F ....G F Z V s 4 a > & 9 x Y 8.J.c.q.-.q.i.",
"' | 1.r.y.y.5.t.9.4.7.#.R -.o.F k a , > > , < q   (.(.(.(.(.(.(.(.(.(.(.(.(.(.(.(.(.(.(.(.(.  s Z ] ..o.o...G Z g V 0 8 u U ( 0.K.c.8.%.6.q.",
"^ ^ 2.r.y.t.4.r.9.5.7.#.R =.o.F V s q < q a s   (.(.(.(.(.(.(.G.(.(.(.(.(.(.(.(.(.G.(.(.(.(.  w V F { $.;.;.$.o.S ..g w j Y ) l.K.q.6.@.%.6.",
"^ ~ ,.r.y.r.,.r.r.8.7.#.R =.X.R C x f s k V C   (.(.(.(.(.(.(.G.(.(.(.(.(.(.(.(.(.G.(.(.(.(.  < f V [ $.0.e.0.-.o.$.C h n Y O.c.b.0.-.@.@.) ",
"| ^ | t.y.9.,.r.r.5.#.) D =.=...R T C C T ..  (.(.(.(.(.(.(.(.G.(.(.(.(.(.(.(.(.(.G.(.(.(.(.(.  4 g F o.w.e.e.:.=.w.S j n U &.e.i.0.@.( ) ( ",
"| ~  .y.y.t.2.<.9.#.~ D D =.-.=.X.X...R +.=.  (.(.(.(.(.(.(.(.G.G.(.(.(.(.(.(.(.G.(.(.(.(.(.(.  , s Z ..;.e.i.0.-.0.D j n Y =.b.b.0.( d D / ",
"E ; c r.t.r.9.9.3.~ / N Y =.*.=.=.-.-.( +.  (.(.(.(.(.(.(.(.(.(.G.G.(.(.(.(.(.(.G.(.(.(.(.(.(.  > 4 x G o.0.e.6.-.e.G k U ( *.b.b.0.O.v N Y ",
"A ; 7 ,.,.4.9.r.5.} ~ A S =.=.-.-.h.q.0.h.  (.(.(.(.(.(.(.(.(.(.G.G.G.(.(.(.G.G.G.(.(.(.(.(.(.  > < s Z X.:.q.7.-.b.R k L ( =.c.b.0.-.) ( Y ",
"| M A ,.| } 3.9.9.3.@.Q S =.=.-.h.k.l.b.z.  (.(.(.(.(.(.(.(.(.(.(.G.G.G.G.G.G.G.(.(.(.(.(.(.(.(.  , a V ..-.8.-.*.H.R h K Y &.e.c.0.-.@.( N ",
",.,.2.9. .~ } 9.9.4.%.~ S =.=.-.h.j.j.  (.(.(.(.(.(.(.(.(.(.(.(.G.G.G.G.G.G.G.(.(.(.(.(.(.(.(.  & > 4 x G $.:.-.-.b.( u v Y -.b.q.-.4.%.@.~ ",
"| <.9.9.,.~ ~ 9.4.3.4.~ S =.6.0.-.6.  (.(.(.(.(.(.(.G.(.(.(.(.G.G.G.G.G.G.(.(.(.(.(.(.(.(.(.  @ & > 4 f S $.-.=.-.H.( u k Y 0.I.q.-.-.%.8.%.",
"| ,.2.9.,.~ Q 4.4.,.4.Q m =.h.0.-.*.=.*.-.&.(   (.(.(.(.(.(.(.G.(.(.(.G.G.G.G.G.G.(.(.(.(.(.(.(.(.(.(.  x o.$.=.-.H.R h K _ 0.K.q.e.%.) 6.@.",
"| ,.2.3.,.| | %.3. . .! m &.j.0.-.-.-.-.  (.(.(.(.(.(.(.(.G.G.G.G.G.G.G.(.(.(.(.(.(.(.(.(.(.(.(.(.  < s n ..o.O.=.e.( d K ( 0.P.e.l.@.y ( h.",
"| 9.2.3.,. .%.|  .| | D m &.l.h.-.*.-.  (.(.(.(.(.(.(.(.(.(.(.G.G.G.(.(.(.(.(.(.(.(.(.(.(.(.(.(.(.  , w g G X.o.=.0.! j k I =.b.e.l.8.S ) I.",
"| 9.,.| |  .%.} | | } D m =.l.0.h.0.-.  (.(.(.(.(.(.(.(.(.(.(.(.(.(.(.(.(.(.(.(.(.(.(.(.(.(.(.(.(.  > 4 s C ( X.-.0.Y e e k &.b.e.e.e.i.m.~.",
"} 8.,. .| | #.} #.| ~ D m -.j.0.0.0.@.  (.(.(.(.(.(.(.(.(.(.(.(.(.(.(.(.(.(.(.(.(.(.(.(.(.(.(.(.  & > , w x F X.-.0.T e e n &.c.q.e.i.b.K.Q.",
"} ,. . .| | #.} | #.~ ! m -.h.h.0.0.@.  (.(.(.(.(.(.(.(.(.(.(.(.(.(.(.(.(.(.(.(.(.(.(.(.(.(.(.(.  % = > 4 g S ..@.w.R e d U &.8.0.b.H.b.U.~.",
"}  .| | | | #.} | | ^ Q K -.h.6.0.0.-.  (.(.(.(.(.(.(.(.(.(.(.(.(.(.(.(.(.(.(.(.(.(.(.(.(.(.(.  @ % & > q g F ..=.0.R h v Y -.q.i.e.K.b.K.~.",
"} | ^ } } | | } | } } Q K :.h.h.j.0.6.  (.(.(.(.(.(.(.(.(.(.(.(.(.(.(.(.(.(.(.(.(.(.(.(.(.(.  @ $ % & > w g G X.:.w.R j J U -.e.V.0.K.U.~.~.",
"^ } ~ } } } } } #.} } W m -.0.h.h.0.0.q.  (.(.(.(.(.(.(.(.(.(.(.(.(.(.(.(.(.(.(.(.(.(.(.(.  @ @ % & > , s n R o.8.0.( K K R -.e.H.0.H.~.~./.",
"~ ~ ~ } } } | } } ^ } D m -.0.h.h.0.0.0.-.    (.(.(.(.(.(.(.(.(.(.(.(.(.(.(.(.(.(.(.(.    @ @ $ % = , w g S ( &.0.0.( U Y ( -.e.b.:.H.~.U.~.",
"~ ~ ~ ^ } |  .} } ^ } W T -.h.0.h.-.-.0.-.Y 9     (.(.(.(.(.(.(.(.(.(.(.(.(.(.(.(.    @ @ $ $ % = , 4 f C R o.=.0.0.( ( R ) -.e.e.-.l.T.H.U.",
"! ! Q ^ } |  .| } ^ ^ W S 0.0.-.0.0.-.h.&.Y t 2 0       (.(.(.(.(.(.(.(.(.(.      @ @ @ $ % % * , q s m R ( &.-.q.0.( O.( ) -.e.0.=.k.Y.l.H.",
"! A D ~ ^ ~ } } } ^ } Q D :.0.-.0.-.=.-.&.S t d s w , =                     $ $ $ @ @ $ % = - , w g V T ..X.=.*.0.8.( O.O.) -.q.0.=.h.b.e.b.",
"A z 3 A ~ ! ~ } @.~ } Q Y 6.-.=.=.@.O.&.O.Y l v n g w , $ $ > & % % % % % % % % % $ % & > , 4 a x C R ( &.&.=.-.0.0.( o.O.O.*.0.0.=.0.0.0.e."
};
