/* XPM */
static char *_04ab922e3f949e5f171307fe447838cJUf7KVZVty86wWuP[] = {
/* columns rows colors chars-per-pixel */
"70 70 255 2 ",
"   c #160E09",
".  c #1C120B",
"X  c #19190E",
"o  c #210F0B",
"O  c #22140B",
"+  c #2A140D",
"@  c #26190C",
"#  c #2B1A0D",
"$  c #331D0E",
"%  c #2B1910",
"&  c #381712",
"*  c #341E11",
"=  c #192914",
"-  c #3A200D",
";  c #362212",
":  c #3B2313",
">  c #2C341B",
",  c #3E3F24",
"<  c #3D2732",
"1  c #4F1B1A",
"2  c #542B0F",
"3  c #422515",
"4  c #472717",
"5  c #452915",
"6  c #4E2B12",
"7  c #4B2C16",
"8  c #4C2C19",
"9  c #5A2B17",
"0  c #522C1A",
"q  c #54321A",
"w  c #583519",
"e  c #5B341B",
"r  c #6D2E15",
"t  c #632B1A",
"y  c #67371A",
"u  c #633A1D",
"i  c #7A3B13",
"p  c #753819",
"a  c #6E1E23",
"s  c #5B3528",
"d  c #422733",
"f  c #442A33",
"g  c #4C2D34",
"h  c #4E3136",
"j  c #533236",
"k  c #5A3436",
"l  c #5B3937",
"z  c #702627",
"x  c #673A26",
"c  c #6B3E22",
"v  c #753C25",
"b  c #653837",
"n  c #643B3A",
"m  c #6C3D39",
"M  c #743D39",
"N  c #2B4E29",
"B  c #366C34",
"V  c #55431A",
"C  c #7A4613",
"Z  c #784419",
"A  c #564C2F",
"S  c #6C4222",
"D  c #744423",
"F  c #7B4627",
"G  c #6B4339",
"H  c #74423C",
"J  c #7B453C",
"K  c #7C4838",
"L  c #6D5532",
"P  c #467233",
"I  c #6E6B33",
"U  c #7C7332",
"Y  c #256043",
"T  c #2C6344",
"R  c #376849",
"E  c #307848",
"W  c #397848",
"Q  c #7D4C41",
"!  c #6E5441",
"~  c #526F49",
"^  c #467849",
"/  c #497554",
"(  c #54795A",
")  c #6D764C",
"_  c #607F63",
"`  c #903B1F",
"'  c #872629",
"]  c #913732",
"[  c #AE3632",
"{  c #CD3A3A",
"}  c #8D4315",
"|  c #884416",
" . c #974B19",
".. c #825A1C",
"X. c #AB5418",
"o. c #B1531B",
"O. c #834B2A",
"+. c #874928",
"@. c #954C2C",
"#. c #88532B",
"$. c #8C532A",
"%. c #93542D",
"&. c #9C532D",
"*. c #9A592C",
"=. c #864A37",
"-. c #954C33",
";. c #8A5435",
":. c #955333",
">. c #9B5433",
",. c #955935",
"<. c #9D5A33",
"1. c #BC4C2C",
"2. c #A4582B",
"3. c #AC5C2C",
"4. c #B35E2B",
"5. c #A45C33",
"6. c #A55835",
"7. c #AC5D33",
"8. c #B35D32",
"9. c #88712F",
"0. c #B66125",
"q. c #B5622D",
"w. c #BA652D",
"e. c #BE6B2E",
"r. c #AA712E",
"t. c #A86335",
"y. c #AC6434",
"u. c #B46234",
"i. c #BC6432",
"p. c #B46B36",
"a. c #BC6A36",
"s. c #B3643B",
"d. c #B66A39",
"f. c #BC6D3B",
"g. c #BC7338",
"h. c #C35D1C",
"j. c #D26B1A",
"k. c #D7681E",
"l. c #EC761D",
"z. c #C55C27",
"x. c #D74737",
"c. c #D15030",
"v. c #ED5635",
"b. c #CA6628",
"n. c #C46D2F",
"m. c #D66626",
"M. c #D96F2B",
"N. c #C9712D",
"B. c #C46B33",
"V. c #C36A36",
"C. c #CA6E33",
"Z. c #C36D3B",
"A. c #C67433",
"S. c #CD7333",
"D. c #C4733C",
"F. c #CA743D",
"G. c #CC7A3E",
"H. c #D37433",
"J. c #D57A34",
"K. c #DA7C36",
"L. c #D1763B",
"P. c #D47B3D",
"I. c #DA7E3B",
"U. c #E26D20",
"Y. c #EA6A25",
"T. c #F66A29",
"R. c #EA7523",
"E. c #F57423",
"W. c #FB7622",
"Q. c #F47B24",
"!. c #FA7B23",
"~. c #F77B2B",
"^. c #F36836",
"/. c #BA3940",
"(. c #D93A40",
"). c #844D41",
"_. c #8C5444",
"`. c #975A46",
"'. c #9A5A46",
"]. c #A35D48",
"[. c #926B49",
"{. c #A9654B",
"}. c #B46B4D",
"|. c #B2744F",
" X c #9A7D66",
".X c #CC7442",
"XX c #CD7047",
"oX c #C87544",
"OX c #CD7A42",
"+X c #D47D42",
"@X c #D67C42",
"#X c #65863A",
"$X c #388547",
"%X c #3E9348",
"&X c #46894A",
"*X c #578746",
"=X c #598B56",
"-X c #4D9150",
";X c #6C8D50",
":X c #689758",
">X c #52A94A",
",X c #59B64A",
"<X c #7CA44C",
"1X c #6E9068",
"2X c #759B69",
"3X c #79A26D",
"4X c #9A8C3A",
"5X c #B18633",
"6X c #FA821B",
"7X c #CD8832",
"8X c #DE8136",
"9X c #DA803A",
"0X c #FA8426",
"qX c #FB8728",
"wX c #FB8C29",
"eX c #F4942C",
"rX c #FC932B",
"tX c #FC9C2E",
"yX c #E28438",
"uX c #ED9432",
"iX c #D3A23A",
"pX c #FDA02F",
"aX c #E2A336",
"sX c #FDA431",
"dX c #FEAD34",
"fX c #FEB035",
"gX c #8A9755",
"hX c #AD9555",
"jX c #A8A84A",
"kX c #8F956E",
"lX c #A99768",
"zX c #92A875",
"xX c #AAAF79",
"cX c #DB8243",
"vX c #D98445",
"bX c #C58A50",
"nX c #E18946",
"mX c #EC9853",
"MX c #CFB14E",
"NX c #E5B851",
"BX c #D2A072",
"VX c #D1AA79",
"CX c #DDC755",
"ZX c #E7CB59",
"AX c #E5D059",
"SX c #9CA582",
"DX c #B1AF88",
"FX c #B6B88C",
"GX c #CCB98E",
"HX c #E7BA8B",
"JX c #BAC08F",
"KX c #CCC499",
"LX c #D6C699",
"PX c #ECC89C",
"IX c #DECDA3",
/* pixels */
"C.H.C.C.V.u.2.2.V.V.8.6.2.OX@X@XOXs.f.cX@XF.f.F..XZ.f.u.7.5.L.cXP.L.L.P.P.@XP.F.C.5.G.nXcXcX@XL.F.F.F..XF.P.cXnXI.P.OXF.}.6.+.&.s..X.XOX.X.X",
"C.S.C.C.i.6.&.@.&.&.2.6.&.OXvX@XOXoX.XnXcXOX.XF.Z.f.s.7.6.5.L.9XP.F.L.L.L.P.P.F.Z.7.G.cXcX9XP.F.F.oXF.OXF.@X@XnXnXnXF.s.t.:.v v @.a..X@X.X.X",
"C.C.C.C.i.6.&.v 9 y @.2.>.OX@X@X@X@XcXnXcX@XF.p.5.<.%.@.@.&.P.cXF.F.F.Z.u.y.y.5.&.+.y.d.p.p.y.5.5.5.5.t.t.y.u.D.yXnXZ.6.,.=.@.>.7.Z.OX.XZ.F.",
"B.B.C.H.C.i.2.v t +.u.7.>.OXvXvX@X@XcXnX@XcXp.v 0 8 4 3 0 F G.9XC.C.C.y.D 8 7 7 5 : 8 q q q 8 8 4 4 4 8 8 7 q $.9XyXZ.7.v v +.@.6.C.P..XZ.@X",
"i.B.C.H.C.3.+.x +.&.7.u.>.oX@XvXOXD.D.OXF.D.%.: X X X X @ q y.g.y.7.y.@.0 + + + + # # # # # # # # # # # # + + u t.D.u.+.x x v =.6.f.@XoX8.F.",
"B.B.C.H.B.&.y v 2.V.V.a.<.oX@X@X:.c u u u u V N N N N N N > q e 0 0 q t z ' ' ' ` } } } } } } } } } } } } ` ' a q F %.v :.:.K :.s.f.@X}.+.+.",
"B.B.C.S.C.8.@.&.u.H.L.F.<.oX@Xd.x @ X X X X > B $X$X$X$XB N @ O O O O 1 [ (.(.x.v.Y.R.R.R.R.R.R.R.R.R.R.R.v.x.' & 5 D v 6.s.:.:.7.s..X7.+.v ",
"B.B.B.i.C.B.3.2.2.i.C.D.>.s.:.S , N N B B B B B E E E $XW A z r i i i  .c.v.v.v.T.W.0XrXrXrXrXrXrXrXrXrXrXqX^.z.| t 7 3 O.u.:.6.oXZ.F.s.@.v ",
"i.i.7.@.6.B.8.2.&.3.V.Z.>.<.0 # N $X>X,X,X,X-XW T T T E *X`.x.x.m.k.k.U.E.E.E.E.E.!.wXsXdXdXdXdXdXdXdXdXdXdXsXeXR. .3 @ x 5.>.7.D.F.P.F.s.s.",
"i.i.&.t t 2.i.2.&.3.V.Z.:.>.3 X B >X,X,X,X,X>X;X) 1X1X3XzXBX@XXXg.N.Q.W.W.!.0XwXwXwXtXdXfXfXfXfXfXfXfXfXfXfXfXsXrXb.| 2 0 c $.u.D.G.P.P.@XZ.",
"i.i.&.9 0 @.8.2.2.i.C.Z.-.>.3 = B ,X,X-X%X&X;XlXBXGXKXKXLXIXHXlX~ 9.M.W.W.!.rXsXsXsXdXdXdXdXdXdXdXdXdXdXdXdXdXdXsXeXU.X.6 * c t.f.F.L.P.F.6.",
"8.i.u.+.p 3.i.i.i.i.C.V.:.,.3 X P ,X>X&X-X:XzXVXHXPXPXGXFXFXDX1XW I N.W.0XwXsXdXfXfXdXdXdXdXdXdXdXdXdXdXdXdXdXfXdXpX0Xh.6 . q %.y.a.Z.F.a.6.",
"8.B.C.8.q.B.B.S.C.B.S.Z.:.:.: X P ,X>X&X2XFXLXPXPXHXVXkX( ( ( W W U M.0XrXsXdXdXdXdXdXdXdXdXdXdXdXdXdXdXdXdXdXfXdXtX0X0.6   7 O.%.&.<.6.6.>.",
"u.B.C.i.i.S.C.F.C.B.I.a.O.O.e V *X,X>X&X2XDXGXGXGXVXlX) T Y T W *X4X8XwXsXdXdXdXdXdXdXdXdXdXdXdXdXsXsXdXdXdXdXdXdXsXwXb.p & 3 e D O.+.+.@.8.",
"B.B.C.B.C.J.S.S.i.B.P.5.4 q *.r.#X-X%X%X&X=X_ _ =X;X;X&XE E E I r.7XeXsXdXdXdXdXdXdXdXdXdXdXdXfXsXrXwXtXdXdXdXdXdXdXsXyX1.' 1 * 7 v F F >.s.",
"C.S.J.C.H.K.H.H.V.a.g.O.5 V r.iXgX=X&X$XW / / / / *X-X&X&X&X*X4XR.wXsXdXfXdXdXdXdXdXdXdXdXdXdXdXtXwX0XtXdXfXdXdXdXdXdXrX^.{ 1 . * x v +.>.u.",
"B.H.H.S.J.K.K.K.C.*.D S 9.4X4XjXxXzX:XE ( kXSXSXzXlXgX:X&X#X5X7XeXpXdXfXdXdXdXdXdXdXdXdXdXdXsXrXwXrXtXsXdXdXdXfXfXsXrX0XT.c.t . % u v +.&.u.",
"B.B.H.H.K.I.I.I.F.O.; V MXCX<X=XxXKXkX/ 1XGXIXIXGXVXlX:X*X9.R.wXsXdXdXdXdXdXdXdXdXdXdXdXdXdXtXqX0XtXdXdXdXdXdXdXdXtX0X!.!.k.r . % e c F @.y.",
"8.3.V.H.K.8XK.yXH.+.O e iXCX;X^ kXHXGXzXDXHXGXSXkXkX) &X*Xr.Q.wXdXfXdXdXdXdXdXdXdXdXdXdXdXdXsXtXrXrXrXsXdXfXdXsXrXrXrXwX0Xk.9   @ q u F $.7.",
"7.2.B.H.I.I.K.8XA.F ; V 7XiX) / kXVXHXLXHXVXlX( R R R W *Xr.Q.wXsXfXdXdXdXdXdXdXdXdXdXdXdXdXdXdXtXwX0XtXdXfXdXtX0XwXtXtXwXk.r O @ 8 u D $.t.",
"+.&.C.J.K.K.K.e.+.D I 9.4XjXgXkXDXHXGXSXzXlX) R T ( 2X3XzXbXQ.wXsXfXdXdXdXdXdXdXdXdXdXdXdXdXdXtXrXwXrXpXdXfXdXpXrXwXrXrXrXR.@.t 1 ; 5 c $.y.",
"t +.C.S.K.K.J.+.: L MXMX<X:XxXLXIXLXzX( ^ *X^ T / SXLXIXLXmX~.wXsXfXdXdXdXdXdXdXdXdXdXdXdXdXtXwX0XrXsXdXdXdXdXdXsXrXqXqXtXeXv.[ a + @ e +.y.",
"v v i.C.J.K.H.Z O L NXCX:X-XzXDXDXSX1XR ^ :X=XW / zXKXHXVXmXwXrXdXdXdXdXdXdXdXdXdXdXdXdXdXdXsXrXwXrXtXdXdXdXdXdXtXrXwXwXtXrX^.(.a . @ e O.t.",
"7.3.S.J.H.H.C.Z @ S aXMX;X$X/ / / / W $X2XFXxX=X$X-X<XbXuXtXsXdXdXdXdXdXdXdXdXdXdXdXdXdXdXdXdXsXtXwXwXtXdXfXdXtXwXwXtXtXwX~.v.{ a o @ q F t.",
"B.C.H.K.H.H.n.y @ V 5XjXgX=X( ( ( ( ^ &XzXLXJX:X$X$X*Xr.Q.rXdXfXdXdXdXdXdXdXdXdXdXdXdXdXdXdXdXsXtXwXwXtXdXfXdXtXwXwXtXtXwX~.^.x.z O O q D %.",
"H.J.K.K.H.H.e.y O > I gXhXlXDXDXFXDX2X-XzXLXJX:X$X$X*Xr.Q.rXdXfXdXdXdXdXdXdXdXdXdXdXdXdXdXdXsXwXwXrXsXdXdXdXdXdXsXrXwXwXtXrX~.m.p O O 8 c $.",
"H.K.K.K.J.H.B.p O > B :XVXHXLXKXLXFX2X-XzXKXFX:X$X$X*Xr.Q.rXdXfXdXdXdXdXdXdXdXdXdXdXdXdXdXdXpXwX0XtXsXdXdXdXdXdXsXtX0XwXtXtXwXU.i O . 7 u F ",
"H.yXyXyXJ.H.S.Z . = B 2XGXLXxXzX2X1X/ W 3XKXFX:X$X$X*Xr.Q.rXdXfXdXdXdXdXdXdXdXdXdXdXdXdXdXdXdXtXrXwXrXtXdXfXdXtXrXwXrXrXrXwX0XU.i O . 5 e D ",
"J.yXyX8XH.H.e.Z ; > B 2XFXGX2X&XW R T T 1XKXGX2X&X$X*Xr.Q.rXdXfXdXdXdXdXdXdXdXdXdXdXdXdXdXdXdXdXtXwX0XtXdXfXdXtX0XwXtXtXwX!.W.U.i O . 5 e D ",
"8XyXyXK.S.*.Z Z ..I I )  XkX=X&X1XkX( R 1XGXHXFX3X&X~ r.Q.rXdXfXdXdXdXdXdXdXdXdXdXdXdXdXdXdXsXrXwXrXrXsXdXfXdXsXrXrXrXrXrXwX0XU.i O . 5 q y ",
"yXyXyX8XA.y ; C iX7X;.H J ! ~ =XSXGX2XR ) BXHXLXDX=XP r.Q.rXdXdXdXdXdXdXdXdXdXdXdXdXdXdXdXdXtX0X0XtXdXdXdXdXdXdXdXtX0X0XtXsXwXU.i O . 5 7 e ",
"yXyX8X8XA.e @ ..NXNX{.=.M G A ~ kXzX1XW ) hXBXxXzXgX9.b.Q.rXdXfXdXdXdXdXdXdXdXdXdXdXdXdXfXdXsXrXwXrXtXsXdXdXdXfXfXsXrXrXsXdXrXU.i O . 3 0 u ",
"8X8XK.K.A.u # U ZXNX|.`.=.M H L ) -X&X&X) |. X;X;Xr.U.E.Q.rXdXfXdXdXdXdXdXdXdXdXdXdXdXdXdXdXdXdXtXwX0XtXdXfXdXdXdXdXdXdXdXsXwXU.i O . 5 q D ",
"yX8XS.q.e.u # U AXZXbX].=.J =._.) ) ~ ~ ) `._.~ I N.W.W.!.rXdXfXdXdXdXdXdXdXdXdXdXdXdXdXdXdXdXpXrXwXwXtXdXdXdXdXdXdXfXfXfXsXwXU.i O . 7 e D ",
"yX8XC.2.e.e # U AXZXbX].=.J '.{.|.[._.L H J H G ;.b.W.W.!.rXdXfXdXdXdXdXdXdXdXdXdXdXdXdXdXdXsXwX0XrXsXdXdXdXdXdXdXdXdXdXfXsXwXU.i O O 7 e D ",
"yX8XJ.H.A.e # U AXNX|._.M m ).].}.}.'.J J =.J M -.m.!.0XwXrXtXsXdXdXdXdXdXdXdXdXdXdXdXdXdXdXsXwXwXrXsXdXdXdXdXdXdXdXdXdXfXsXrXU.i O . 7 e D ",
"yX8XK.K.A.e # 9.AXNX[.M j g l G '.}.'.J =.'.`.J -.m.!.rXtXrXqXrXdXdXdXdXdXdXdXdXdXdXdXdXdXdXdXsXtXwXwXtXdXdXdXdXdXdXdXdXfXdXrXU.i O . 7 e D ",
"K.8XK.J.A.e # 9.AXMX`.M l h d g Q '.).H _.{.{.=.-.m.!.rXtXrX0XrXdXfXdXdXdXdXdXdXdXdXdXdXdXdXdXsXtXwX0XtXdXfXdXdXdXdXdXdXdXtXqXm.p O . 5 e D ",
"K.8XJ.K.A.e # U AXNX|.`.`.Q j < j n l j Q {.{.=.-.m.!.0XwXrXtXsXdXdXdXdXdXdXdXdXdXdXdXdXdXdXsXrXwXrXtXsXdXdXdXdXfXfXfXsXrX0X^.x.z . . 5 e D ",
"J.K.H.K.S.e # U AXZXbX}.}.'.G h d d < g H '.`.J =.b.W.!.0XrXsXdXdXdXdXdXdXdXdXdXdXdXdXdXdXdXtXwX0XtXsXdXdXdXdXdXdXdXsXtX0XE.v.[ a o . 5 q S ",
"J.S.C.I.G.u # U AXZXbX}.].`._.Q l < f k n G n k K b.!.wXrXrXrXtXdXdXdXdXdXdXdXdXdXdXdXdXdXdXsXtXrXwXrXsXdXfXdXsXrXwXwXwX0XY.` a 1 # * 5 e D ",
"J.B.B.8X9Xu # U AXZXbX'.=.J '.'.G g k m b j f d x z.!.tXsXrX0XrXdXfXdXdXdXdXdXdXdXdXdXdXdXdXdXdXtXwX0XtXdXfXdXrX0XE.E.E.E.h.r + @ ; 5 8 e D ",
"S.n.N.K.9Xu # U AXNX|.=.b b H Q m l b M H H n f x z.!.wXrXrXrXtXdXdXdXdXdXdXdXdXdXdXdXdXdXdXsXtXrXrXrXsXdXsXrXqX!.T.T.c.X.i 3 @ ; 5 8 q u F ",
"n.n.n.J.A.e # U ZXMX`.b g f f j b m M H _.{._.j x z.W.W.0XrXsXdXdXdXdXdXdXdXdXdXdXdXdXdXdXdXtXqX0XtXdXdXdXrX!.Q.E.T.v.[ 9 + # 3 7 7 q e c O.",
"n.n.S.H.A.e # 9.NXMXK g d < f g j b J _.'.'.Q h x 4.!.0XwXrXtXsXdXdXdXdXdXdXdXdXdXdXdXdXdXdXsXrXwXrXtXtXrXwX!.k.X.` ] a & . $ 5 8 8 e u D %.",
"w.B.N.S.A.e @ ..aX7XG < < g l b h j Q {.].).b g x z.!.rXsXrX0XrXdXfXdXdXdXdXdXdXdXdXdXdXdXdXdXdXtXwX!.!.!.!.E.X.2 + + + + * ; 7 q e u c +.<.",
"8.w.N.S.n.e @ ..aX5Xl < f k J J k f H '.]._.H k v b.!.rXtXrXwXrXdXdXdXdXdXdXdXdXdXdXdXdXfXdXdXsXrX0XW.W.E.k.o.p #       + * : 0 e u D F %.y.",
"4.8.N.H.e.e @ ..aX5Xl d k H '.`.n f k =.'.{.`.H =.b.!.!.0XrXpXsXdXdXdXdXdXdXdXdXdXdXdXdXfXdXsXwX0X!.W.W.R. .2 $ $ * @ @ % : 4 e S D F +.&.7.",
"4.3.n.H.n.e @ ..aX7XG j M _.{.{.).l b M ).'._.H =.b.!.!.0XrXsXdXdXdXdXdXdXdXdXdXfXdXdXsXpXsXrX0XR.k.h.h.o.r O O ; 5 * % * 4 8 c F O.$.@.5.5.",
"w.4.w.J.n.e @ ..aX7XK M `.{.}.}.{.`.=.H m m l j M b.!.rXtXrXwXrXdXdXdXdXdXdXdXdXfXdXtXwX0XwX0X!.k.} 2 2 2 3 $ * : 5 ; * : 4 e F $.%.%.%.&.5.",
"w.3.e.K.e.e @ ..aX7X=.J {.}.}.}.}.}.'.J l f < d v z.!.rXsXrX0XrXdXfXdXdXdXdXdXdXdXsXrX!.W.E.E.U.o.2 .   . # 3 3 3 8 3 : 4 e D %.t.t.%.v @.5.",
"2.9 +.H.e.e @ ..aX7XG G {.}.].'.{.}.'.J k d < j =.b.!.0XwXrXtXsXdXdXdXdXdXfXfXdXtXwX0XW.W.W.k.} 9 - @ @ @ ; 5 4 7 e 8 4 e v $.y.d.p.5.+.@.>.",
"&.9 p n.3.q @ ..uXA.G n '.{.).J '.}.'.H k g g b =.m.W.!.0XrXsXdXdXdXdXdXdXdXdXsXwXQ.R.U.Y.U.X.6 O $ 3 5 5 7 8 8 q c e 0 x O.<.f.D.f.a.7.5.>.",
"w.@.&.n.2.7 @ C 8XJ.,.).`.).m b `.{._.b j k j j K b.!.qXrXrXrXtXdXfXfXdXtXrXrXwX0XE.h.} i i r $ @ ; 5 5 8 q e e u F c e v O.6.D.F.Z.f.8.5.@.",
"n.n.N.S.3.7 O i M.K.}.'.).m g j _.{.).g j m b g M z.!.tXsXrX0XrXsXdXdXtXqX!.!.!.!.U.} $ . O @ ; 5 5 7 8 e u c c D %.F s D ;.s.@XD.f.Z.a.u.3.",
"w.N.S.S.3.5 O p c.v.]._.J b g h _.{.Q g h m M M ] m.0XtXdXpXwXrXrXtXtXrX0XW.W.E.h. .9 @ . . @ ; 5 8 q e u D F O.$.y.$.x F ,.Z.cXF.f.f.a.D.a.",
"w.n.N.N.4.8 + z { { =.J H b g j _.{.Q g g m ] /.x.Y.!.tXdXdXsXrX0X!.!.Q.E.W.W.U.| $ # ; : : : 3 8 q u u S $.%.%.<.g.%.c O.6.F.cXF.G.a.7.Z.u.",
"w.n.N.n.q.Z 7 a ] [ &.=.m j f h Q '.J k j l ] x.v.T.!.rXtXtXtXwX!.W.T.m.o.X.X. .2 . # 3 5 5 7 8 e u D F $.*.5.5.y.D.<.F =.<.D.cXG.OXu.v 5.F.",
"w.S.N.B.w.3.+.9 3 p h.0.m d < g m J J m j g F b.E.Q.Q.0X0X0X0X!.!.T.v.[ r - - 3 $ $ : 5 7 8 q e S F O.%.,.y.p.d.d.D.5.F F ;.d.@XG.OXD.%.7.vX",
"w.S.n.w.w.w.3.q . t b.m.@.b j g k b b b b b @.m.6X6X!.!.W.E.T.m.h.1.[ ' &     . # : 7 8 q e u D O.%.%.<.5.d.g.g.D.F.>.x x F s.@XG.G.G.P.@XnX",
"q.A.n.e.w.w.3.q . 9 c.v.m.3.F l g g f g M [ c.U.6X6X6X6X!.T.v.[ t 4 1 1 * # # # : 3 8 q u S D #.<.t.y.y.p.f.D.F.F.G.<.x c O.s.@XG.G.P.@XvXnX",
"q.n.e.w.q.w.3.y * 1 [ x.Y.M.6.] b s s b ] x.v.E.l.j.j.j.j.c.[ z +     O ; 5 5 7 7 5 e u S F $.<.y.p.f.d.f.f.D.D.D.G.<.x F :.s.D.D.@XcX@XvXnX",
"q.e.w.w.u.w.q.$.p 9 1 ' c.v.x.x.1.0.0.0.m.T.W.!.j.} y y y t 1 1 # @ @ $ 3 7 7 0 q q S D F %.*.y.p.D.D.g.D.D.D.D.D.G.<.D O.,.f.F.P.G.vX@XvXnX",
"q.w.8.q.q.q.q.3.2.y # 1 [ { { { c.k.U.U.U.U.U.U.X.2 .   .   . @ ; 3 3 5 8 q e u y u F #.%.t.y.g.D.OXD.D.D.f.D.D.OXG.<.F O.:.f.G.9XD.vXvXvXnX",
"8.q.3.q.q.w.q.q.3.+.q 3 1 a a z p C C C C C C i y - O O . . @ ; 5 5 7 q e u y D O.D %.*.t.p.d.D.G.G.G.D.D.D.Z.D.F.F.5.=.=.<.f.G.cXD.vXnXnXmX",
"3.3.3.q.q.w.w.q.3.2.$.q + O o O O O O O O O . . O * ; : * ; 5 7 7 8 q u S D O.$.*.$.t.y.p.g.D.D.G.G.D.D.D.f.f.D.F.F.5.:.,.5.f.G.@Xf.vXnXvXnX",
"3.3.3.4.q.w.e.q.4.2.&.p : ; # @ @ . . . . .     @ * 3 3 : : q e e e c D O.$.%.*.y.5.f.d.g.D.D.D.OXOXD.D.D.f.f.D.OXD.5.6.<.7.f.G.G.d.OXvXvXvX",
"2.2.3.4.q.w.e.q.q.3.2.+.c D c e 0 4 3 3 : * # $ : 4 7 7 3 7 c S D D F $.*.t.y.p.p.y.g.f.D.G.f.f.G.D.f.f.D.d.f.f.OXF.5.5.5.7.g.G.D.d.oXvX@XvX",
"2.&.&.3.4.3.q.q.q.3.3.&.O.%.+.D c q 0 0 8 3 * 3 8 q q q 8 e O.+.#.#.,.5.y.g.g.g.A.p.f.f.D.G.D.f.D.D.f.f.f.d.f.f.F.D.5.s.t.7.f.F.D.d.oX@XG.@X",
"&.+.y &.3.2.3.q.q.3.4.2.$.5.:.O.D x e e e 0 4 0 e u u x e c *.*.*.t.y.p.f.D.F.D.A.p.f.D.G.G.D.D.OXD.f.f.f.d.d.f.D.D.5.y.t.t.f.D.D.d.D.F.D.G."
};
