/* XPM */
static char *_0a17ff289aa4262becbf8579149c286vN1kkGWdlxBLoUgd[] = {
/* columns rows colors chars-per-pixel */
"70 70 178 2 ",
"   c #000000",
".  c #090B0F",
"X  c #090C14",
"o  c #0F1218",
"O  c #101416",
"+  c #11151A",
"@  c #14191E",
"#  c #171C20",
"$  c #191F23",
"%  c #35012C",
"&  c #2F0D3B",
"*  c #330432",
"=  c #380631",
"-  c #320A37",
";  c #3B0934",
":  c #320C39",
">  c #2D103F",
",  c #39123D",
"<  c #1A2023",
"1  c #212835",
"2  c #2C1444",
"3  c #2B1847",
"4  c #261748",
"5  c #271C4D",
"6  c #2B1B4B",
"7  c #331441",
"8  c #381440",
"9  c #341A46",
"0  c #3D1D46",
"q  c #311C49",
"w  c #261F50",
"e  c #1D2442",
"r  c #1B2155",
"t  c #1F2659",
"y  c #242D48",
"u  c #36204C",
"i  c #3B234C",
"p  c #252354",
"a  c #2B2554",
"s  c #212759",
"d  c #232B5D",
"f  c #2C2F5E",
"g  c #302350",
"h  c #372A55",
"j  c #342F5B",
"k  c #333F54",
"l  c #34325E",
"z  c #3E375F",
"x  c #262F60",
"c  c #273060",
"v  c #2A3463",
"b  c #2E3967",
"n  c #2F3B68",
"m  c #333460",
"M  c #313966",
"N  c #313D69",
"B  c #45244C",
"V  c #432D54",
"C  c #42335A",
"Z  c #483F64",
"A  c #38464E",
"S  c #354155",
"D  c #374458",
"F  c #394659",
"G  c #3C4B5D",
"H  c #3F4E60",
"J  c #36426D",
"K  c #38456F",
"L  c #374570",
"P  c #394670",
"I  c #3C4A73",
"U  c #474065",
"Y  c #404F61",
"T  c #44496F",
"R  c #45456A",
"E  c #435364",
"W  c #475768",
"Q  c #4B5C6C",
"!  c #404F76",
"~  c #4C4E72",
"^  c #404F78",
"/  c #514D70",
"(  c #415077",
")  c #4D5274",
"_  c #44547A",
"`  c #49567A",
"'  c #47587D",
"]  c #495A7E",
"[  c #515D7E",
"{  c #605B7B",
"}  c #4E606F",
"|  c #4F6170",
" . c #526573",
".. c #556976",
"X. c #576B78",
"o. c #596D7A",
"O. c #5B707D",
"+. c #4C5E80",
"@. c #4F6183",
"#. c #526585",
"$. c #546887",
"%. c #536689",
"&. c #566A89",
"*. c #596D8B",
"=. c #5B718E",
"-. c #596E90",
";. c #5E7492",
":. c #676381",
">. c #607794",
",. c #627996",
"<. c #6E7A96",
"1. c #667D99",
"2. c #6A829D",
"3. c #6D86A1",
"4. c #6F89A2",
"5. c #728CA6",
"6. c #748EA9",
"7. c #7691AA",
"8. c #7A95AD",
"9. c #7C98AF",
"0. c #7A97B0",
"q. c #7C99B0",
"w. c #7D9AB1",
"e. c #7E9BB1",
"r. c #7E9BB2",
"t. c #7C99B2",
"y. c #7F9CB2",
"u. c #7F9CB4",
"i. c #7D9BB2",
"p. c #809DB3",
"a. c #809DB4",
"s. c #809EB4",
"d. c #819EB5",
"f. c #83A1B6",
"g. c #83A2B7",
"h. c #83A1B6",
"j. c #83A1B8",
"k. c #84A3B8",
"l. c #85A4B9",
"z. c #87A6BA",
"x. c #86A4BA",
"c. c #86A4BA",
"v. c #88A7BB",
"b. c #88A7BC",
"n. c #88A7BE",
"m. c #88A7BC",
"M. c #89A9BC",
"N. c #89A9BD",
"B. c #89A8BC",
"V. c #88A8BF",
"C. c #8AA9BE",
"Z. c #8AAABE",
"A. c #8BABBF",
"S. c #8BABBE",
"D. c #8AAABD",
"F. c #8BACBF",
"G. c #8CACBF",
"H. c #8AAABE",
"J. c #8CACC0",
"K. c #8CADC0",
"L. c #8DADC1",
"P. c #8CADC1",
"I. c #8DAEC1",
"U. c #8DAEC3",
"Y. c #8EAFC2",
"T. c #8CACC2",
"R. c #8EAFC4",
"E. c #8DADC1",
"W. c #8FB0C3",
"Q. c #8FB0C5",
"!. c #8FB1C5",
"~. c #8FB0C4",
"^. c #90B1C5",
"/. c #90B1C6",
"(. c #90B2C6",
"). c #92B3C7",
"_. c #91B2C6",
"`. c #93B5C9",
/* pixels */
"                                                                                                                                            ",
"    . + @ $ < $ $ $ $ $ $ $ $ < $ @ + o o o o + # $ $ $ < < < $ $ $ $ $ # + + @ $ < $ $ $ # + o o o o + @ $ < $ $ $ $ $ $ $ $ $ $ < $ O     ",
"  . 1 F Q X.X.X.X.X.X.X.X.X.X.X...W F S S S S G } X.X.X.X.X.X.X.X.X.X.X. .Y F W X.X.X.X.X.} G S S S S F W ..X.X.X.X.X.X.X.X.X.X.X.O.X.A O   ",
"  + F ;.8.z.V.V.V.V.V.V.V.V.V.V.z.6.>.*.=.*.*.1.9.V.V.V.V.V.V.V.V.V.V.V.a.2.>.6.z.V.V.V.V.9.1.*.*.=.*.;.6.z.V.V.V.V.V.V.V.V.V.V.V.K.z.X.$   ",
"  @ Q 8.V.R./.Q././.Q.Q.Q.Q././.K.k.8.7.7.7.7.q.b./././././.Q.Q.Q.Q././.K.u.8.k.Q./././.Q.V.q.7.7.7.7.8.j.K././././././.Q.Q.Q.Q.Q.`.K.O.<   ",
"  $ X.z.R.V.V.V.G.V.V.V.V.V.G.G.V.V.V.V.V.V.V.V.V.V.V.b.V.V.V.V.V.V.V.V.b.b.V.V.G.G.G.G.V.V.V.V.V.V.V.V.V.V.V.V.V.G.V.V.V.V.F.V.V.Q.V.X.$   ",
"  < O.K.).K.K.K.K.G.V.V.V.F.G.G.V.K.K.K.K.K.K.K.K.b.8.6.q.V.K.V.K.V.g.7.7.f.K.K.K.K.V.V.V.K.K.K.K.K.K.K.K.A.A.V.V.V.V.V.A.G.G.V.V./.V.X.$   ",
"  $ X.v.R.V.V.V.V.G.V.V.V.V.V.G.V.V.V.A.V.V.V.V.F.f.2.,.6.b.K.V.K.K.q.1.1.8.V.K.V.V.V.V.V.V.V.V.V.V.V.V.A.A.V.V.G.G.G.V.V.G.V.V.V.Q.v.X.$   ",
"  @ Q 7.8.7.7.7.e.V.K.K.K.K.K.K.K.K.K.K.K.K.K.b.e.7.3.2.8.V.K.V.K.V.a.5.4.e.b.a.8.a.V.K.K.K.K.b.q.8.f.K.K.K.K.K.K.K.K.K.K.K.V.K.V.z.7.W @   ",
"  + G ;.,.;.;.;.5.k.K.K.V.V.V.V.V.V.V.V.V.K.K.a.2.,.6.f.b.V.V.V.A.V.V.k.k.V.z.5.,.6.z.K.K.K.K.a.2.1.7.V.K.V.V.V.V.G.V.V.V.V.V.K.V.q.,.F +   ",
"  o S $.;.,.,.1.6.k.b.a.9.9.9.9.9.9.8.8.8.9.9.3.#.#.5.K.W.K.K.K.K.K.K.K.K.K.z.2.*.,.7.q.8.9.q.6.>.*.2.8.q.8.8.8.8.9.9.9.q.k.V.K.V.q.1.G +   ",
"  o S *.4.q.p.e.k.V.p.3.,.,.,.,.,.,.,.,.,.,.,.%.P I 1.V./.K.K.K.K.K.K.K.K.K.z.3.*.*.>.,.,.,.,.>.*.&.=.>.,.,.,.,.,.,.,.>.2.9.V.K.V.V.q. .#   ",
"  + G 1.q.V.K.K.K.K.9.,.$.#.$.$.&.=.>.,.>.,.,.%.P P ;.q.f.a.a.a.p.a.f.V.V.z.q.4.,.>.>.>.>.;.*.&.&.&.=.>.>.>.>.>.;.&.&.=.1.9.V.K.V./.V.X.$   ",
"  @ Q 8.b.V.K.K.K.K.q.>.#.#.#.#.*.2.7.q.8.q.9.3.&.+.*.1.2.1.1.1.1.1.6.z.v.7.2.5.8.8.8.8.8.4.;.&.#.*.2.7.8.8.8.8.3.=.=.3.q.z.A.K.V./.G.o.<   ",
"  $ X.V.Q.V.V.V.V.z.8.1.;.;.=.&.*.3.a.z.k.k.k.7.;.#.#.&.&.&.&.&.&.&.,.6.6.;.&.4.b.K.V.K.V.8.;.#.&.,.8.V.K.V.K.V.8.>.,.8.V.K.V.K.V.K.f. .$   ",
"  $ X.V./.V.K.V.p.6.4.6.7.7.5.,.*.>.2.3.3.4.4.>.' I ] $.&.$.$.$.$.$.#.@.] P ! 1.V./.K./.^.6.+.( ;.8.z.K.K.K.W.K.9.>.,.q.K.W.K.K.V.f.3.E @   ",
"  $ X.V.Q.V.K.V.7.;.,.q.V.K.f.2.*.&.*.*.*.*.*.+.N b ( &.*.&.&.&.&.&.] N d s b ;.f.V.z.V.z.2.P L 1.V.K.V.V.V.V.z.7.;.>.7.z.b.z.V.k.7.=.S +   ",
"  $ X.V.Q.V.K.V.2.' #.8./.).z.3.*.#.$.$.$.&.&.' n v ! &.*.&.&.&.&.&.' b r r v +.3.6.5.6.5.&.b J 3.^./.K.K.K.a.6.1.*.*.2.5.5.4.5.3.1.$.k o   ",
"  $ X.V./.A.W.V.,.J ^ 5.J.K.f.2.*.$.&.&.&.&.&.] b v ( &.*.&.&.&.&.&.] N d s v ( *.=.*.=.*.] n P 1.z.V.V.V.v.7.,.*.*.*.*.=.=.=.=.=.;.&.F +   ",
"  $ X.V./.A.K.V.;.b N ;.7.8.5.,.&.&.&.*.*.*.*.] N v ( &.*.&.&.&.&.&.@.I J J P ' #.&.$.&.$.] I I %.,.3.7.7.7.5.2.2.2.1.=.&.>.2.2.2.3.2.E @   ",
"  $ X.V.Q.A.K.V.,.N N @.;.;.=.*.&.&.&.&.&.&.&.] b v ( &.*.&.&.&.&.&.$.#.@.@.#.#.&.&.&.&.&.&.#.] P J +.=.;.;.3.q.z.z.8.,.;.5.f.z.f.b.f. .$   ",
"  @ Q 8.b.V.W.F.6.%.] #.&.&.&.&.&.@.' _ _ _ _ P v x J _ #.&.&.&.&.&.&.*.*.*.*.&.&.&.&.&.&.*.*.+.n x I #.&.*.3.z.)./.a.1.;.7.F.K.K./.V.X.$   ",
"  + G ,.q.V.K.K.z.8.3.;.&.&.&.*.$.( N v b b b v d d d N ( $.*.&.&.&.&.&.&.&.&.&.&.&.&.&.&.*.*.+.N v I &.&.*.3.z./.W.p.1.;.7.V.K.K./.V.X.$   ",
"  + G 1.q.z.a.7.6.6.2.%.] ] ] ] ' J d d v n n n n n b N I ] #.&.&.&.#.+.+.#.&.&.&.&.&.#.+.] ] ! b c K ] ] +.*.3.6.6.2.;.;.7.V.K.V.Q.V.X.$   ",
"  # Q 8.J.z.2.+.I ^ I J n n N N N v d b ( ' _ _ ' ' ' _ P J ( #.*.&.+.P K ] &.*.*.*.&.] K N N b d d v n N N K I I I ( +.;.8.V.K.V.Q.V.X.$   ",
"  $ X.V.`.k.-.v s c v v v v v d d s d K @.*.&.&.&.&.*.#.P c N ] $.&.] n v I +.@.@.@.+.I v d v v v v v v d d d v b N P ] ;.6.f.V.V./.V.X.$   ",
"  < O.K.`.k.&.c d K ! ( ( ( I b s t d P #.=.*.*.*.*.=.$.P d c N _ #.] n d b J J J J J b d v P ( ( ( ( I N d v P +.-.;.*.*.>.2.9.V./.V.X.<   ",
"  $ ..k./.k.;.J P #.*.&.&.&.@.P v s d J ] #.#.#.#.#.#.+.K d t d J ] _ n d d d d d d d s d N ] &.&.&.&.#.P v N @.2.e.q.1.&.&.>.7.b.R.k...$   ",
"  @ E 4.j.z.6.;.,.4.3.>.*.*.&.+.I n d v K P P K K P P K n d t t v J N v d s s s s s s t d N @.=.=.*.=.&.I v J #.3.z.g.1.*.,.6.a.b.j.4.E @   ",
"  + F >.8.V.V.z.z.z.8.>.#.#.#.#.+.P d d d x c v v c x d d d d d d c x d d d d d d d d s s M ` $.$.$.&.#.P v J @.2.e.q.,.;.6.z.K.V.8.>.F +   ",
"  @ E 3.a.V.K.K./.W.7.#.I I I ! I N d t s c N K K N v t t d b K P P N v d d d d d d s p 3 u C U T I I P n d J #.,.4.3.;.;.7.F.W.V.a.3.E @   ",
"  $ ..g.K.V.V.V.K.V.4.^ c c v v v d d s d N _ #.#.] J d t d J ] #.#.( n d s d d d d s 6 : = ; 8 a v v v d d K @.*.=.*.&.;.7.V.K.V.K.g...$   ",
"  < o.G./.V.K.V.z.8.,.( N N N N N J N v d N +.*.*.#.( J v d N ( ] ' I v d s d d d d s 5 > * % * 4 s v N N J P ( ] #.#.#.;.7.V.K.V./.G.o.<   ",
"  < X.V./.V.K.V.8.1.*.@.+.+.+.+.+.@.] P v N ] *.*.&.#.] J d d v b b v d d d d d d d s s p 3 * * 4 c P ] @.+.I N K +.&.$.;.7.V.K.V./.V.X.$   ",
"  #  .q.V.V.K.V.9.2.,.1.,.=.&.&.&.*.&._ J P @.&.&.&.*.#.P d t s s s s d d d d d d v n n n l i i j J ' &.*.&._ J I *.1.,.2.q.V.K.V.V.9.| #   ",
"  + G 1.q.V.K.A.z.e.q.q.7.,.&.&.&.&.&.#.] +.#.&.&.&.*.#.P d s s s s s d d d d s d J _ ] ] ` ) ) ` ] #.&.*.&.@.] *.6.q.q.e.z.V.K.V.q.1.G +   ",
"  o S =.7.V.K.A.V.F.K.K.a.2.&.&.&.&.&.&.&.&.&.&.&.&.*.#.P d s d d d d d d d d s d P #.*.&.&.&.&.&.&.&.&.&.&.&.&.2.a.K.K.J.V.V.K.V.0.,.G +   ",
"  o S *.7.V.K.G.F.K.K.W.f.2.*.&.*.*.*.*.*.*.*.*.*.*.*.#.P d s d d d d d d d d s d I $.*.*.&.&.&.&.&.&.&.&.&.&.&.2.f.K.K.K.J.V.K.V.x.8.Q @   ",
"  o S =.7.V.K.V.V.V.V.z.8.>.#.@.#.#.#.#.#.#.#.#.#.#.#.+.K d s d d d s s s s d s d K +.$.&.&.&.&.&.&.&.&.&.&.$.&.2.a.K.K.V.V.V.V.V.Q.V.X.$   ",
"  o S =.8.V.K.V.K.K.k.7.,.' K J K K K K K K K K K K K J v d s d d d p 2 2 w s t d v J _ #.*.&.&.&.&.&.&.&.&.$.&.1.a.K.K.V.V.V.V.V./.V.X.$   ",
"  o S =.6.z.V.V.V.V.8.1.@.J v x v v v x d d c v v v v v c d d d d d p : : 6 d x d d v K +.&.&.&.&.&.&.&.&.&.$.&.1.a.K.K.V.V.V.V.G.Q.V.X.$   ",
"  o S &.1.5.e.b.f.7.2.=.@.( P K P P K n d c N P P K K P P P n x d d s 3 q m P P P P P P P _ #.&.*.*.*.*.*.*.&.*.2.f.K.K.V.V.V.V.G./.V.X.$   ",
"  + D &.;.;.6.z.9.,.*.&.&.#.#.#.#.#.@.I v b ' #.#.#.#.#.#.@.I v s s s s v ! #.#.#.#.#.! n J ] &.&.&.&.&.&.&.#.&.1.e.V.K.G.G.V.V.G.Q.V.X.$   ",
"  @ E 2.3.2.8.z.p.3.,.*.&.&.*.*.*.*.&.! v N +.=.*.*.*.*.=.&.T g 3 3 5 s b ' &.*.*.*.&.] P I @.#.] ( ( ( ( ( I ( #.2.q.z.G.K.A.V.G./.V.X.$   ",
"  $  .a.x.f.z.V.V.k.7.>.&.&.&.&.&.*.&.I v N ] *.*.&.&.&.*.$.Z , * * & w v _ &.*.&.&.&.#.@.#.&.+.K v v v v v v v P $.2.e.G.K.G.G.V.Q.V.X.$   ",
"  < X.G./.K.K.V.K.K.a.4.,.*.&.&.&.*.$.I v v I ' ' ` ~ ~ ` _ z 7 * - 2 p b _ &.*.&.&.&.&.&.*.*.] N d v n N N n N P +.,.q.G.K.G.G.V.Q.V.X.$   ",
"  < X.V./.K.V.V.K.K.V.f.7.,.&.&.&.*.$.! v d v n b m i 0 h b f a 5 w p s b _ &.*.&.&.&.&.&.*.&.] N c K ] ] ] ] ] +.#.,.9.V.K.A.V.V.Q.V.X.$   ",
"  #  .p.J.V.V.V.V.V.K.K.a.2.&.&.&.*.&._ N v b v d p : * 2 s d d d d d s v I ] +.+.#.&.&.&.*.*.] N v ! &.*.&.&.&.&.&.,.9.V.K.V.V.V.Q.V.X.$   ",
"  + Y 2.u.V.K.V.V.V.K.K.f.2.*.&.*.*.&.#.] _ _ I v p & % 2 s d d d d d d d b N N J _ $.*.*.*.*.+.N v ! &.*.&.&.&.&.&.,.9.V.K.V.V.V.Q.V.X.<   ",
"  + S =.7.V.K.V.V.V.K.K.e.,.#.+.@.@.@.#.&.&.&.] N s 2 : 3 s d d d d d d d d d s d K ] #.@.@.#._ n v I $.*.&.&.&.&.&.,.9.V.K.V.V.V./.V.X.$   ",
"  o k *.7.V.K.G.V.V.K.K.8.#.J N J J K _ &.=.=.+.N s 5 6 p s d d d d d d s s t t s v N J J J J N x v ! $.*.&.&.&.&.&.,.9.V.K.V.V.V./.V.X.<   ",
"  + F ;.8.V.K.G.V.V.K.K.7.' v d v d d J +.&.#.' N s s s s d d d d d d d d d x x x c v v v v v x d v ( $.*.&.&.&.&.&.,.9.A.K.V.V.V.K.z...$   ",
"  @ W 6.j.V.K.V.V.V.K.K.8.%.P K K b d v J I P J c s 4 3 5 s s s s d s s d N I I I P P P P P P J v v ( &.*.&.&.&.&.&.,.q.K.K.G.K.V.f.5.E @   ",
"  $ ..z.K.V.V.V.V.V.K.K.e.1.#.#.@.P d d c v v c x s 7 : 3 d d d d d d d b ( #.#.#.#.#.#.#.#.#.' N v I #.&.&.&.&.&.&.,.8.V.K.G.K.V.8.>.F +   ",
"  < X.V./.V.V.V.V.V.K.K.a.2.*.*.#.P d c N J J J K J C V z J L K b d x N I +.&.*.*.*.*.*.*.*.*.+.N x N ( +.&.*.*.&.&.;.2.7.f.V.K.V.a.2.E @   ",
"  $ X.V./.V.V.V.V.V.K.K.a.1.&.&.#.P v N ] #.@.@.@.@.[ [ [ @.#.@.I v b ( #.&.&.&.&.&.&.&.&.&.&.+.N d d b ! #.&.&.&.&.&.*.1.8.V.K.V.K.f. .$   ",
"  $ X.V./.V.V.V.K.K.b.e.6.,.&.&.$._ K ! #.*.*.*.*.*.&.*.&.*.*.&._ v n ] *.*.&.&.&.&.&.&.&.&.&.] N s t d N ( _ _ ] #.*.>.2.q.V.K.V./.V.X.<   ",
"  < X.V./.V.V.V.K.K.a.2.;.*.&.&.&.#.+.@.&.&.&.&.&.&.&.&.&.&.*.&.( v n ] &.*.&.&.&.&.&.&.&.&.&.] N s t d x v v b K +.>.6.a.b.V.V.G./.V.X.<   ",
"  #  .e.V.V.K.A.v.a.6.>.&.&.&.@.+.#.&.*.&.&.&.&.&.&.&.&.&.&.*.&.( v n ' &.&.&.&.&.&.&.&.&.&.&.@.P n n n n n b n P +.,.q.K.K.V.V.V./.V.X.<   ",
"  + G 2.q.V.K.V.q.2.>.*.&.*.#.I J _ &.*.*.&.&.&.&.&.&.&.&.&.*.&.( v b ' &.&.&.&.&.&.&.&.&.&.&.#.+.' ' ' ' _ _ _ ] #.,.q.K.K.V.V.V./.V.X.<   ",
"  + G ,.0.V.K.V.8.1.*.#.+.@.' N x J ] @.+.#.$.&.&.&.&.&.&.&.&.&.! f m ` &.&.&.&.&.&.&.&.&.&.&.&.&.&.&.&.&.&.&.&.&.&.,.9.G.K.G.K.V.K.f. .$   ",
"  @ W 7.z.V.K.A.k.8.,.( N N n d s v N N N I +.&.&.$.$.$.$.$.&.$.R 9 u ~ &.&.$.$.$.$.$.$.$.$.$.$.&.&.&.&.&.&.$.$.$.#.>.8.G.K.G.K.V.a.2.E +   ",
"  $ X.v.Q.V.V.V.K.V.4.( b b b v v v b b n I #.=.=.=.=.=.=.=.;.*./ B B ) &.=.=.=.=.=.=.=.=.=.=.=.=.=.=.=.=.=.=.=.*.*.1.q.V.K.A.V.k.6.=.S o   ",
"  $ X.V./.V.V.V.K.K.q.1.*.-.&.' I ] &.*.*.>.3.6.7.7.6.6.6.6.6.6.<.:.{ #.*.2.6.6.6.6.6.6.6.6.6.6.6.6.6.6.6.6.6.6.6.6.8.k.V.K.b.q.3.,.$.S o   ",
"  $ X.V.Q.V.V.V.V.V.V.z.z.k.q.1.=.2.a.z.k.z.z.z.k.j.z.v.b.b.b.b.v.g.7.,.>.6.k.b.v.b.b.b.b.z.z.z.z.b.b.b.b.V.V.V.b.b.V.V.V.K.z.6.;.;.*.F +   ",
"  < O.K.`.Q.Q.Q.Q.Q./.).W.k.8.6.7.j./.`.).`.).z.4.3.t./.)./././.).).J.0.6.6.q.x./.)./.)./.V.q.q.V./.)././.).).)././././././.K.u.6.6.5.W @   ",
"  < X.z.K.V.V.V.V.V.V.V.e.2.>.5.f.v.V.V.V.F.V.6.' I 1.z.G.V.V.V.V.V.V.z.9.1.,.6.z.V.V.V.V.8.1.,.8.V.V.V.V.V.V.V.V.V.V.V.V.V.V.z.f.x.a. .$   ",
"  O A X.O.X.X.X.X.X.X.X. .H F W X.O.X.X.X.X.X.W y e G X.O.X.X.X.X.X.X.O. .E F W X.X.X.X.X.Q G G Q X.X.X.X.X.X.X.X.X.X.X.X.X.X.X.X.O.X.A O   ",
"    O $ < < < $ $ $ $ $ # + + @ $ < $ $ $ < $ @ X X + $ < $ $ $ $ $ $ < $ + + @ $ < < < < # + + @ $ < < $ $ $ $ $ $ $ $ $ $ $ $ < < $ O     ",
"                                                                                                                                            "
};
